<svg width="3562" height="1760" viewBox="0 0 3562 1760" fill="none" xmlns="http://www.w3.org/2000/svg">
<rect width="640" height="1760" rx="48" fill="#07C1D8"/>
<path d="M186.673 91.5L202.873 119.3L219.273 91.5H239.073L211.073 136V164H193.973V135.8L166.673 91.5H186.673ZM277.331 165.3C255.031 165.3 239.731 150.4 239.731 127.8C239.731 105.2 255.031 90.3 277.331 90.3C299.531 90.3 314.931 105.2 314.931 127.8C314.931 150.4 299.531 165.3 277.331 165.3ZM277.331 151.2C287.931 151.2 296.831 143.2 296.831 127.8C296.831 112.4 287.931 104.4 277.331 104.4C266.731 104.4 257.831 112.4 257.831 127.8C257.831 143.2 266.731 151.2 277.331 151.2ZM344.621 91.5V134.8C344.621 145.4 347.121 151.3 359.021 151.3C371.021 151.3 373.121 144.5 373.121 133.8V91.5H390.221V132.4C390.221 154.7 381.621 165.3 359.021 165.3C337.321 165.3 327.521 156.9 327.521 133V91.5H344.621ZM435.956 136.7H424.356V164H407.256V91.5H435.156C453.956 91.5 468.056 95.9 468.056 113.9C468.056 124.6 462.156 130.7 453.856 133.9L471.756 164H451.656L435.956 136.7ZM424.356 105.9V122.3H435.656C443.756 122.3 449.956 120.9 449.956 114.1C449.956 107.4 443.756 105.9 435.656 105.9H424.356ZM146.006 204C139.406 204 134.506 206.5 134.506 211C134.506 214.6 137.906 217.2 142.906 218.3L152.806 220.3C164.506 222.7 179.306 226.3 179.306 241.5C179.306 256.7 164.006 265.3 148.906 265.3C130.306 265.3 118.106 256 115.506 240.4H132.506C134.406 248 140.406 251.5 149.306 251.5C155.106 251.5 161.706 249.6 161.706 243.6C161.706 238.9 156.106 236.6 148.206 234.9L139.406 233.1C127.606 230.6 116.906 225 116.906 212C116.906 197.2 132.806 190.3 147.006 190.3C161.206 190.3 174.706 196.5 177.206 212.5H160.306C158.606 207.1 153.306 204 146.006 204ZM207.647 206.5H184.447V191.5H248.147V206.5H224.847V264H207.647V206.5ZM276.193 191.5V234.8C276.193 245.4 278.693 251.3 290.593 251.3C302.593 251.3 304.693 244.5 304.693 233.8V191.5H321.793V232.4C321.793 254.7 313.193 265.3 290.593 265.3C268.893 265.3 259.093 256.9 259.093 233V191.5H276.193ZM362.729 191.5C386.429 191.5 405.129 200.1 405.129 227.7C405.129 255.4 386.429 264 362.729 264H338.829V191.5H362.729ZM363.029 205.9H355.929V249.6H363.029C375.629 249.6 387.029 246.9 387.029 227.7C387.029 208.6 375.629 205.9 363.029 205.9ZM435.929 264H418.829V191.5H435.929V264ZM487.204 265.3C464.904 265.3 449.604 250.4 449.604 227.8C449.604 205.2 464.904 190.3 487.204 190.3C509.404 190.3 524.804 205.2 524.804 227.8C524.804 250.4 509.404 265.3 487.204 265.3ZM487.204 251.2C497.804 251.2 506.704 243.2 506.704 227.8C506.704 212.4 497.804 204.4 487.204 204.4C476.604 204.4 467.704 212.4 467.704 227.8C467.704 243.2 476.604 251.2 487.204 251.2Z" fill="#0E101A"/>
<path d="M144.514 750.4L153.586 765.968L162.77 750.4H173.858L158.178 775.32V791H148.602V775.208L133.314 750.4H144.514ZM195.283 791.728C182.795 791.728 174.227 783.384 174.227 770.728C174.227 758.072 182.795 749.728 195.283 749.728C207.715 749.728 216.339 758.072 216.339 770.728C216.339 783.384 207.715 791.728 195.283 791.728ZM195.283 783.832C201.219 783.832 206.203 779.352 206.203 770.728C206.203 762.104 201.219 757.624 195.283 757.624C189.347 757.624 184.363 762.104 184.363 770.728C184.363 779.352 189.347 783.832 195.283 783.832ZM232.965 750.4V774.648C232.965 780.584 234.365 783.888 241.029 783.888C247.749 783.888 248.925 780.08 248.925 774.088V750.4H258.501V773.304C258.501 785.792 253.685 791.728 241.029 791.728C228.877 791.728 223.389 787.024 223.389 773.64V750.4H232.965ZM284.113 775.712H277.617V791H268.041V750.4H283.665C294.193 750.4 302.089 752.864 302.089 762.944C302.089 768.936 298.785 772.352 294.137 774.144L304.161 791H292.905L284.113 775.712ZM277.617 758.464V767.648H283.945C288.481 767.648 291.953 766.864 291.953 763.056C291.953 759.304 288.481 758.464 283.945 758.464H277.617ZM362.487 763.112H353.079C352.239 760.312 349.383 757.624 344.175 757.624C338.295 757.624 333.703 761.992 333.703 770.56C333.703 779.128 337.959 783.832 344.343 783.832C348.767 783.832 353.359 782.152 353.359 777V776.216H343.559V768.376H362.935V791H355.599L355.319 786.52C352.687 790.048 348.711 791.728 342.887 791.728C330.903 791.728 323.567 783.552 323.567 770.56C323.567 757.736 331.967 749.728 344.287 749.728C353.303 749.728 360.583 754.264 362.487 763.112ZM384.331 750.4H394.859L410.203 791H399.787L397.323 783.776H381.643L379.235 791H369.043L384.331 750.4ZM384.275 775.992H394.747L389.539 760.536L384.275 775.992ZM434.821 791L425.693 758.52V791H416.397V750.4H431.517L439.301 779.52L447.253 750.4H462.205V791H452.909V758.464L443.837 791H434.821ZM472.353 750.4H503.489V758.8H481.929V765.912H502.313V774.368H481.929V782.544H503.489V791H472.353V750.4Z" fill="#0E101A"/>
<path d="M103.388 1390.4L112.46 1405.97L121.644 1390.4H132.732L117.052 1415.32V1431H107.476V1415.21L92.1884 1390.4H103.388ZM154.157 1431.73C141.669 1431.73 133.101 1423.38 133.101 1410.73C133.101 1398.07 141.669 1389.73 154.157 1389.73C166.589 1389.73 175.213 1398.07 175.213 1410.73C175.213 1423.38 166.589 1431.73 154.157 1431.73ZM154.157 1423.83C160.093 1423.83 165.077 1419.35 165.077 1410.73C165.077 1402.1 160.093 1397.62 154.157 1397.62C148.221 1397.62 143.237 1402.1 143.237 1410.73C143.237 1419.35 148.221 1423.83 154.157 1423.83ZM191.839 1390.4V1414.65C191.839 1420.58 193.239 1423.89 199.903 1423.89C206.623 1423.89 207.799 1420.08 207.799 1414.09V1390.4H217.375V1413.3C217.375 1425.79 212.559 1431.73 199.903 1431.73C187.751 1431.73 182.263 1427.02 182.263 1413.64V1390.4H191.839ZM242.987 1415.71H236.491V1431H226.915V1390.4H242.539C253.067 1390.4 260.963 1392.86 260.963 1402.94C260.963 1408.94 257.659 1412.35 253.011 1414.14L263.035 1431H251.779L242.987 1415.71ZM236.491 1398.46V1407.65H242.819C247.355 1407.65 250.827 1406.86 250.827 1403.06C250.827 1399.3 247.355 1398.46 242.819 1398.46H236.491ZM294.481 1398.8H281.489V1390.4H317.161V1398.8H304.113V1431H294.481V1398.8ZM341.188 1431.73C328.7 1431.73 320.132 1423.38 320.132 1410.73C320.132 1398.07 328.7 1389.73 341.188 1389.73C353.62 1389.73 362.244 1398.07 362.244 1410.73C362.244 1423.38 353.62 1431.73 341.188 1431.73ZM341.188 1423.83C347.124 1423.83 352.108 1419.35 352.108 1410.73C352.108 1402.1 347.124 1397.62 341.188 1397.62C335.252 1397.62 330.268 1402.1 330.268 1410.73C330.268 1419.35 335.252 1423.83 341.188 1423.83ZM389.652 1431.73C377.164 1431.73 368.596 1423.38 368.596 1410.73C368.596 1398.07 377.164 1389.73 389.652 1389.73C402.084 1389.73 410.708 1398.07 410.708 1410.73C410.708 1423.38 402.084 1431.73 389.652 1431.73ZM389.652 1423.83C395.588 1423.83 400.572 1419.35 400.572 1410.73C400.572 1402.1 395.588 1397.62 389.652 1397.62C383.716 1397.62 378.732 1402.1 378.732 1410.73C378.732 1419.35 383.716 1423.83 389.652 1423.83ZM428.006 1422.54H447.494V1431H418.43V1390.4H428.006V1422.54ZM463.51 1406.47L478.238 1390.4H489.942L474.934 1406.58L490.726 1431H479.19L468.214 1413.86L463.51 1419.02V1431H453.934V1390.4H463.51V1406.47ZM506.231 1431H496.655V1390.4H506.231V1431ZM525.93 1398.8H512.938V1390.4H548.61V1398.8H535.562V1431H525.93V1398.8Z" fill="#0E101A"/>
<rect x="1040" y="720" width="320" height="320" rx="160" fill="white"/>
<path d="M1272.69 878.187L1242.5 866.875V832.968C1242.5 828.281 1239.59 824.093 1235.19 822.437L1203.94 810.718C1201.41 809.75 1198.59 809.75 1196.03 810.718L1164.78 822.437C1160.38 824.093 1157.47 828.281 1157.47 832.968V866.875L1127.28 878.187C1122.91 879.843 1120 884.031 1120 888.718V923.125C1120 927.375 1122.41 931.281 1126.22 933.187L1157.47 948.812C1160.63 950.406 1164.38 950.406 1167.53 948.812L1200 932.562L1232.47 948.812C1235.62 950.406 1239.38 950.406 1242.53 948.812L1273.78 933.187C1277.59 931.281 1280 927.375 1280 923.125V888.718C1280 884.031 1277.09 879.843 1272.69 878.187ZM1231.88 867.125L1205.31 877.093V855.781L1231.88 844.218V867.125ZM1168.12 832.531L1200 820.593L1231.88 832.531V832.718L1200 845.656L1168.12 832.718V832.531ZM1194.38 923.5L1167.81 936.781V912.062L1194.38 899.937V923.5ZM1194.38 888.5L1162.5 901.437L1130.62 888.5V888.312L1162.5 876.375L1194.38 888.312V888.5ZM1269.38 923.5L1242.81 936.781V912.062L1269.38 899.937V923.5ZM1269.38 888.5L1237.5 901.437L1205.62 888.5V888.312L1237.5 876.375L1269.38 888.312V888.5Z" fill="#0E101A"/>
<rect x="1920" y="720" width="320" height="320" rx="160" fill="white"/>
<g clip-path="url(#clip0_5_2261)">
<path d="M2070.37 939.883L2056.07 935.734C2054.57 935.313 2053.73 933.742 2054.15 932.242L2086.14 822.039C2086.56 820.539 2088.13 819.695 2089.63 820.117L2103.93 824.266C2105.43 824.688 2106.27 826.258 2105.85 827.758L2073.86 937.961C2073.41 939.461 2071.87 940.328 2070.37 939.883ZM2043.65 913.586L2053.84 902.711C2054.92 901.563 2054.85 899.734 2053.66 898.68L2032.42 880L2053.66 861.32C2054.85 860.266 2054.95 858.438 2053.84 857.289L2043.65 846.414C2042.59 845.289 2040.81 845.219 2039.66 846.297L2005.89 877.938C2004.7 879.039 2004.7 880.938 2005.89 882.039L2039.66 913.703C2040.81 914.781 2042.59 914.734 2043.65 913.586ZM2120.34 913.727L2154.11 882.063C2155.3 880.961 2155.3 879.063 2154.11 877.961L2120.34 846.274C2119.21 845.219 2117.43 845.266 2116.35 846.391L2106.16 857.266C2105.08 858.414 2105.15 860.242 2106.34 861.297L2127.58 880L2106.34 898.68C2105.15 899.734 2105.05 901.563 2106.16 902.711L2116.35 913.586C2117.41 914.734 2119.19 914.781 2120.34 913.727Z" fill="#0E101A"/>
</g>
<rect x="2797" y="720" width="320" height="320" rx="160" fill="white"/>
<path d="M3009.5 857.5H2904.5C2900.36 857.5 2897 854.142 2897 850V835C2897 830.858 2900.36 827.5 2904.5 827.5H3009.5C3013.64 827.5 3017 830.858 3017 835V850C3017 854.142 3013.64 857.5 3009.5 857.5ZM2998.25 836.875C2995.14 836.875 2992.62 839.393 2992.62 842.5C2992.62 845.607 2995.14 848.125 2998.25 848.125C3001.36 848.125 3003.88 845.607 3003.88 842.5C3003.88 839.393 3001.36 836.875 2998.25 836.875ZM2983.25 836.875C2980.14 836.875 2977.62 839.393 2977.62 842.5C2977.62 845.607 2980.14 848.125 2983.25 848.125C2986.36 848.125 2988.88 845.607 2988.88 842.5C2988.88 839.393 2986.36 836.875 2983.25 836.875ZM3009.5 895H2904.5C2900.36 895 2897 891.642 2897 887.5V872.5C2897 868.358 2900.36 865 2904.5 865H3009.5C3013.64 865 3017 868.358 3017 872.5V887.5C3017 891.642 3013.64 895 3009.5 895ZM2998.25 874.375C2995.14 874.375 2992.62 876.893 2992.62 880C2992.62 883.107 2995.14 885.625 2998.25 885.625C3001.36 885.625 3003.88 883.107 3003.88 880C3003.88 876.893 3001.36 874.375 2998.25 874.375ZM2983.25 874.375C2980.14 874.375 2977.62 876.893 2977.62 880C2977.62 883.107 2980.14 885.625 2983.25 885.625C2986.36 885.625 2988.88 883.107 2988.88 880C2988.88 876.893 2986.36 874.375 2983.25 874.375ZM3009.5 932.5H2904.5C2900.36 932.5 2897 929.142 2897 925V910C2897 905.858 2900.36 902.5 2904.5 902.5H3009.5C3013.64 902.5 3017 905.858 3017 910V925C3017 929.142 3013.64 932.5 3009.5 932.5ZM2998.25 911.875C2995.14 911.875 2992.62 914.393 2992.62 917.5C2992.62 920.607 2995.14 923.125 2998.25 923.125C3001.36 923.125 3003.88 920.607 3003.88 917.5C3003.88 914.393 3001.36 911.875 2998.25 911.875ZM2983.25 911.875C2980.14 911.875 2977.62 914.393 2977.62 917.5C2977.62 920.607 2980.14 923.125 2983.25 923.125C2986.36 923.125 2988.88 920.607 2988.88 917.5C2988.88 914.393 2986.36 911.875 2983.25 911.875Z" fill="#0E101A"/>
<rect x="2797" y="160" width="320" height="320" rx="160" fill="white"/>
<g clip-path="url(#clip1_5_2261)">
<path d="M3009.5 277.143V287.857C3009.5 297.299 2985.98 305 2957 305C2928.02 305 2904.5 297.299 2904.5 287.857V277.143C2904.5 267.701 2928.02 260 2957 260C2985.98 260 3009.5 267.701 3009.5 277.143ZM3009.5 301.25V325.357C3009.5 334.799 2985.98 342.5 2957 342.5C2928.02 342.5 2904.5 334.799 2904.5 325.357V301.25C2915.78 309.018 2936.42 312.634 2957 312.634C2977.58 312.634 2998.22 309.018 3009.5 301.25ZM3009.5 338.75V362.857C3009.5 372.299 2985.98 380 2957 380C2928.02 380 2904.5 372.299 2904.5 362.857V338.75C2915.78 346.518 2936.42 350.134 2957 350.134C2977.58 350.134 2998.22 346.518 3009.5 338.75Z" fill="#0E101A"/>
</g>
<rect x="2797" y="1280" width="320" height="320" rx="160" fill="white"/>
<g clip-path="url(#clip2_5_2261)">
<path d="M3002 1477.5V1481.25C3002 1487.46 2996.96 1492.5 2990.75 1492.5H2900.75C2894.54 1492.5 2889.5 1487.46 2889.5 1481.25V1421.25C2889.5 1415.04 2894.54 1410 2900.75 1410H2904.5V1458.75C2904.5 1469.09 2912.91 1477.5 2923.25 1477.5H3002ZM3024.5 1458.75V1398.75C3024.5 1392.54 3019.46 1387.5 3013.25 1387.5H2923.25C2917.04 1387.5 2912 1392.54 2912 1398.75V1458.75C2912 1464.96 2917.04 1470 2923.25 1470H3013.25C3019.46 1470 3024.5 1464.96 3024.5 1458.75ZM2949.5 1410C2949.5 1416.21 2944.46 1421.25 2938.25 1421.25C2932.04 1421.25 2927 1416.21 2927 1410C2927 1403.79 2932.04 1398.75 2938.25 1398.75C2944.46 1398.75 2949.5 1403.79 2949.5 1410ZM2927 1443.75L2940.01 1430.74C2941.11 1429.64 2942.89 1429.64 2943.99 1430.74L2953.25 1440L2985.01 1408.24C2986.11 1407.14 2987.89 1407.14 2988.99 1408.24L3009.5 1428.75V1455H2927V1443.75Z" fill="#0E101A"/>
</g>
<path d="M1155.32 1077.4C1151.62 1077.4 1148.88 1078.8 1148.88 1081.32C1148.88 1083.34 1150.78 1084.79 1153.58 1085.41L1159.13 1086.53C1165.68 1087.87 1173.97 1089.89 1173.97 1098.4C1173.97 1106.91 1165.4 1111.73 1156.94 1111.73C1146.53 1111.73 1139.7 1106.52 1138.24 1097.78H1147.76C1148.82 1102.04 1152.18 1104 1157.17 1104C1160.42 1104 1164.11 1102.94 1164.11 1099.58C1164.11 1096.94 1160.98 1095.66 1156.55 1094.7L1151.62 1093.7C1145.02 1092.3 1139.02 1089.16 1139.02 1081.88C1139.02 1073.59 1147.93 1069.73 1155.88 1069.73C1163.83 1069.73 1171.39 1073.2 1172.79 1082.16H1163.33C1162.38 1079.14 1159.41 1077.4 1155.32 1077.4ZM1194.96 1070.4C1208.23 1070.4 1218.7 1075.22 1218.7 1090.67C1218.7 1106.18 1208.23 1111 1194.96 1111H1181.57V1070.4H1194.96ZM1195.13 1078.46H1191.15V1102.94H1195.13C1202.18 1102.94 1208.57 1101.42 1208.57 1090.67C1208.57 1079.98 1202.18 1078.46 1195.13 1078.46ZM1235.95 1086.47L1250.68 1070.4H1262.38L1247.37 1086.58L1263.17 1111H1251.63L1240.65 1093.86L1235.95 1099.02V1111H1226.37V1070.4H1235.95V1086.47Z" fill="white"/>
<path d="M1961.21 1095.71H1954.71V1111H1945.13V1070.4H1960.76C1971.29 1070.4 1979.18 1072.86 1979.18 1082.94C1979.18 1088.94 1975.88 1092.35 1971.23 1094.14L1981.25 1111H1970L1961.21 1095.71ZM1954.71 1078.46V1087.65H1961.04C1965.57 1087.65 1969.05 1086.86 1969.05 1083.06C1969.05 1079.3 1965.57 1078.46 1961.04 1078.46H1954.71ZM1988.29 1070.4H2019.43V1078.8H1997.87V1085.91H2018.25V1094.37H1997.87V1102.54H2019.43V1111H1988.29V1070.4ZM2042.45 1077.4C2038.75 1077.4 2036.01 1078.8 2036.01 1081.32C2036.01 1083.34 2037.91 1084.79 2040.71 1085.41L2046.26 1086.53C2052.81 1087.87 2061.1 1089.89 2061.1 1098.4C2061.1 1106.91 2052.53 1111.73 2044.07 1111.73C2033.66 1111.73 2026.83 1106.52 2025.37 1097.78H2034.89C2035.95 1102.04 2039.31 1104 2044.3 1104C2047.55 1104 2051.24 1102.94 2051.24 1099.58C2051.24 1096.94 2048.11 1095.66 2043.68 1094.7L2038.75 1093.7C2032.15 1092.3 2026.15 1089.16 2026.15 1081.88C2026.15 1073.59 2035.06 1069.73 2043.01 1069.73C2050.96 1069.73 2058.52 1073.2 2059.92 1082.16H2050.46C2049.51 1079.14 2046.54 1077.4 2042.45 1077.4ZM2076.97 1078.8H2063.98V1070.4H2099.65V1078.8H2086.6V1111H2076.97V1078.8ZM2132.59 1070.4H2143.12L2158.47 1111H2148.05L2145.59 1103.78H2129.91L2127.5 1111H2117.31L2132.59 1070.4ZM2132.54 1095.99H2143.01L2137.8 1080.54L2132.54 1095.99ZM2180.28 1070.4C2190.81 1070.4 2198.71 1072.98 2198.71 1083.62C2198.71 1094.31 2190.81 1096.94 2180.28 1096.94H2174.24V1111H2164.66V1070.4H2180.28ZM2174.24 1078.46V1088.88H2180.56C2185.04 1088.88 2188.57 1087.93 2188.57 1083.62C2188.57 1079.36 2185.04 1078.46 2180.56 1078.46H2174.24ZM2214.94 1111H2205.36V1070.4H2214.94V1111Z" fill="white"/>
<path d="M1582.65 828.624C1580.73 828.624 1579.01 828.336 1577.51 827.76C1576.04 827.184 1574.79 826.352 1573.77 825.264C1572.77 824.176 1572.01 822.88 1571.46 821.376C1570.95 819.84 1570.69 818.128 1570.69 816.24H1576.74C1576.74 818.672 1577.25 820.512 1578.28 821.76C1579.3 823.008 1580.76 823.632 1582.65 823.632C1584.5 823.632 1585.93 823.008 1586.92 821.76C1587.94 820.512 1588.45 818.672 1588.45 816.24V793.2H1594.55V816.24C1594.55 818.128 1594.28 819.84 1593.73 821.376C1593.22 822.88 1592.45 824.176 1591.43 825.264C1590.44 826.352 1589.21 827.184 1587.73 827.76C1586.26 828.336 1584.57 828.624 1582.65 828.624ZM1612.7 812.208C1611.32 811.92 1610.02 811.536 1608.81 811.056C1607.59 810.544 1606.52 809.888 1605.59 809.088C1604.7 808.288 1603.98 807.344 1603.43 806.256C1602.92 805.136 1602.66 803.84 1602.66 802.368C1602.66 800.736 1603.05 799.312 1603.82 798.096C1604.58 796.88 1605.59 795.872 1606.84 795.072C1608.09 794.24 1609.5 793.616 1611.06 793.2C1612.63 792.784 1614.22 792.576 1615.82 792.576C1617.54 792.576 1619.16 792.784 1620.66 793.2C1622.17 793.584 1623.51 794.208 1624.7 795.072C1625.88 795.904 1626.87 796.976 1627.67 798.288C1628.5 799.568 1629.1 801.12 1629.45 802.944H1623.54C1623.29 801.888 1622.89 801.024 1622.34 800.352C1621.8 799.648 1621.16 799.104 1620.42 798.72C1619.69 798.304 1618.89 798.016 1618.02 797.856C1617.19 797.664 1616.34 797.568 1615.48 797.568C1614.81 797.568 1614.07 797.648 1613.27 797.808C1612.5 797.968 1611.78 798.24 1611.11 798.624C1610.47 798.976 1609.93 799.44 1609.48 800.016C1609.03 800.592 1608.81 801.312 1608.81 802.176C1608.81 803.52 1609.29 804.56 1610.25 805.296C1611.24 806 1612.49 806.496 1613.99 806.784L1618.26 807.6C1619.8 807.888 1621.27 808.272 1622.68 808.752C1624.12 809.2 1625.38 809.824 1626.47 810.624C1627.59 811.424 1628.49 812.416 1629.16 813.6C1629.83 814.784 1630.17 816.256 1630.17 818.016C1630.17 819.776 1629.77 821.328 1628.97 822.672C1628.17 823.984 1627.11 825.088 1625.8 825.984C1624.52 826.848 1623.05 827.504 1621.38 827.952C1619.75 828.4 1618.07 828.624 1616.34 828.624C1614.26 828.624 1612.36 828.352 1610.63 827.808C1608.94 827.264 1607.45 826.48 1606.17 825.456C1604.92 824.4 1603.91 823.12 1603.14 821.616C1602.38 820.112 1601.9 818.4 1601.7 816.48H1607.7C1608.25 818.88 1609.27 820.672 1610.78 821.856C1612.28 823.04 1614.23 823.632 1616.63 823.632C1617.66 823.632 1618.62 823.52 1619.51 823.296C1620.44 823.072 1621.24 822.736 1621.91 822.288C1622.58 821.84 1623.11 821.296 1623.5 820.656C1623.88 819.984 1624.07 819.232 1624.07 818.4C1624.07 817.504 1623.85 816.752 1623.4 816.144C1622.98 815.536 1622.42 815.024 1621.72 814.608C1621.05 814.192 1620.28 813.872 1619.42 813.648C1618.58 813.392 1617.75 813.184 1616.92 813.024L1612.7 812.208ZM1642.57 810.576C1642.57 812.688 1642.82 814.56 1643.34 816.192C1643.88 817.824 1644.62 819.2 1645.54 820.32C1646.5 821.408 1647.61 822.24 1648.86 822.816C1650.1 823.36 1651.45 823.632 1652.89 823.632C1654.33 823.632 1655.67 823.36 1656.92 822.816C1658.17 822.24 1659.26 821.408 1660.18 820.32C1661.14 819.2 1661.88 817.824 1662.39 816.192C1662.94 814.56 1663.21 812.688 1663.21 810.576C1663.21 808.464 1662.94 806.608 1662.39 805.008C1661.88 803.376 1661.14 802.016 1660.18 800.928C1659.26 799.808 1658.17 798.976 1656.92 798.432C1655.67 797.856 1654.33 797.568 1652.89 797.568C1651.45 797.568 1650.1 797.856 1648.86 798.432C1647.61 798.976 1646.5 799.808 1645.54 800.928C1644.62 802.016 1643.88 803.376 1643.34 805.008C1642.82 806.608 1642.57 808.464 1642.57 810.576ZM1669.5 810.576C1669.5 813.264 1669.11 815.712 1668.34 817.92C1667.58 820.128 1666.47 822.032 1665.03 823.632C1663.59 825.2 1661.85 826.432 1659.8 827.328C1657.75 828.192 1655.45 828.624 1652.89 828.624C1650.33 828.624 1648.02 828.192 1645.98 827.328C1643.93 826.432 1642.18 825.2 1640.74 823.632C1639.3 822.032 1638.2 820.128 1637.43 817.92C1636.66 815.712 1636.28 813.264 1636.28 810.576C1636.28 807.888 1636.66 805.44 1637.43 803.232C1638.2 801.024 1639.3 799.136 1640.74 797.568C1642.18 795.968 1643.93 794.736 1645.98 793.872C1648.02 793.008 1650.33 792.576 1652.89 792.576C1655.45 792.576 1657.75 793.008 1659.8 793.872C1661.85 794.736 1663.59 795.968 1665.03 797.568C1666.47 799.136 1667.58 801.024 1668.34 803.232C1669.11 805.44 1669.5 807.888 1669.5 810.576ZM1698.17 828L1683.43 800.208V828H1677.53V793.2H1685.69L1700.42 820.992V793.2H1706.33V828H1698.17Z" fill="white"/>
<path opacity="0.75" d="M688.688 436.088C688.688 437.592 688.848 438.904 689.168 440.024C689.52 441.112 690 442.024 690.608 442.76C691.216 443.496 691.92 444.056 692.72 444.44C693.552 444.792 694.432 444.968 695.36 444.968C697.376 444.968 698.944 444.184 700.064 442.616C701.184 441.016 701.744 438.84 701.744 436.088C701.744 433.368 701.184 431.224 700.064 429.656C698.944 428.056 697.376 427.256 695.36 427.256C694.432 427.256 693.552 427.448 692.72 427.832C691.92 428.184 691.216 428.728 690.608 429.464C690 430.168 689.52 431.08 689.168 432.2C688.848 433.32 688.688 434.616 688.688 436.088ZM688.928 414.2V426.632C689.696 425.352 690.736 424.36 692.048 423.656C693.36 422.952 694.88 422.6 696.608 422.6C698.176 422.6 699.632 422.92 700.976 423.56C702.352 424.168 703.536 425.064 704.528 426.248C705.52 427.432 706.288 428.856 706.832 430.52C707.408 432.184 707.696 434.04 707.696 436.088C707.696 438.168 707.408 440.04 706.832 441.704C706.288 443.368 705.52 444.792 704.528 445.976C703.536 447.16 702.352 448.072 700.976 448.712C699.632 449.32 698.176 449.624 696.608 449.624C694.88 449.624 693.36 449.272 692.048 448.568C690.736 447.864 689.696 446.872 688.928 445.592V449H683.216V414.2H688.928ZM727.444 428.984C726.484 428.888 725.572 428.84 724.708 428.84C723.812 428.84 723.012 428.952 722.308 429.176C721.604 429.368 721.012 429.72 720.532 430.232C720.052 430.712 719.684 431.384 719.428 432.248C719.172 433.112 719.044 434.184 719.044 435.464V449H713.332V423.176H718.948V427.784C719.652 426.344 720.596 425.224 721.78 424.424C722.996 423.592 724.388 423.16 725.956 423.128C726.18 423.128 726.42 423.144 726.676 423.176C726.964 423.176 727.22 423.192 727.444 423.224V428.984ZM742.296 444.968C743.256 444.968 744.136 444.792 744.936 444.44C745.736 444.056 746.44 443.512 747.048 442.808C747.656 442.072 748.12 441.16 748.44 440.072C748.792 438.952 748.968 437.64 748.968 436.136C748.968 434.664 748.792 433.368 748.44 432.248C748.12 431.128 747.656 430.2 747.048 429.464C746.44 428.728 745.736 428.184 744.936 427.832C744.136 427.448 743.256 427.256 742.296 427.256C741.336 427.256 740.456 427.448 739.656 427.832C738.856 428.184 738.152 428.728 737.544 429.464C736.936 430.2 736.456 431.128 736.104 432.248C735.784 433.368 735.624 434.664 735.624 436.136C735.624 437.64 735.784 438.952 736.104 440.072C736.456 441.16 736.936 442.072 737.544 442.808C738.152 443.512 738.856 444.056 739.656 444.44C740.456 444.792 741.336 444.968 742.296 444.968ZM742.296 422.6C743.928 422.6 745.496 422.872 747 423.416C748.504 423.96 749.832 424.792 750.984 425.912C752.168 427 753.113 428.392 753.817 430.088C754.52 431.784 754.872 433.8 754.872 436.136C754.872 438.472 754.52 440.488 753.817 442.184C753.113 443.88 752.168 445.288 750.984 446.408C749.832 447.496 748.504 448.312 747 448.856C745.496 449.368 743.928 449.624 742.296 449.624C740.664 449.624 739.096 449.368 737.592 448.856C736.088 448.312 734.744 447.496 733.56 446.408C732.408 445.288 731.48 443.88 730.776 442.184C730.072 440.488 729.72 438.472 729.72 436.136C729.72 433.8 730.072 431.784 730.776 430.088C731.48 428.392 732.408 427 733.56 425.912C734.744 424.792 736.088 423.96 737.592 423.416C739.096 422.872 740.664 422.6 742.296 422.6ZM771.957 423.176H777.861L782.325 441.512L786.117 423.176H792.309L785.445 449H780.021L774.933 429.896L769.845 449H764.421L757.557 423.176H763.749L767.541 441.512L771.957 423.176ZM811.721 430.424C811.433 429.208 810.761 428.328 809.705 427.784C808.649 427.24 807.305 426.968 805.673 426.968C804.361 426.968 803.225 427.224 802.265 427.736C801.337 428.216 800.873 428.888 800.873 429.752C800.873 431.352 802.121 432.408 804.617 432.92L808.121 433.64C809.401 433.928 810.601 434.264 811.721 434.648C812.873 435 813.865 435.464 814.697 436.04C815.529 436.616 816.185 437.336 816.665 438.2C817.145 439.032 817.385 440.072 817.385 441.32C817.385 442.664 817.081 443.864 816.473 444.92C815.897 445.944 815.097 446.808 814.073 447.512C813.081 448.184 811.913 448.696 810.569 449.048C809.257 449.432 807.849 449.624 806.345 449.624C804.681 449.624 803.161 449.4 801.785 448.952C800.441 448.504 799.273 447.896 798.281 447.128C797.321 446.36 796.537 445.448 795.929 444.392C795.353 443.336 795.001 442.184 794.873 440.936H800.441C800.697 442.312 801.321 443.384 802.313 444.152C803.305 444.92 804.713 445.304 806.537 445.304C808.137 445.304 809.417 445.016 810.377 444.44C811.337 443.832 811.817 443.016 811.817 441.992C811.817 440.968 811.385 440.184 810.521 439.64C809.689 439.096 808.585 438.68 807.209 438.392L803.321 437.576C802.201 437.352 801.161 437.064 800.201 436.712C799.241 436.328 798.409 435.848 797.705 435.272C797.033 434.664 796.489 433.944 796.073 433.112C795.689 432.248 795.497 431.224 795.497 430.04C795.497 428.888 795.769 427.864 796.313 426.968C796.889 426.04 797.657 425.256 798.617 424.616C799.577 423.976 800.697 423.48 801.977 423.128C803.257 422.776 804.617 422.6 806.057 422.6C807.401 422.6 808.681 422.76 809.897 423.08C811.113 423.4 812.201 423.896 813.161 424.568C814.153 425.208 814.985 426.024 815.657 427.016C816.361 427.976 816.841 429.112 817.097 430.424H811.721ZM834.341 449.624C832.229 449.624 830.357 449.256 828.725 448.52C827.125 447.784 825.781 446.792 824.693 445.544C823.637 444.296 822.821 442.84 822.245 441.176C821.701 439.512 821.429 437.752 821.429 435.896C821.429 433.944 821.733 432.168 822.341 430.568C822.949 428.936 823.797 427.528 824.885 426.344C825.973 425.16 827.285 424.248 828.821 423.608C830.357 422.936 832.069 422.6 833.957 422.6C835.973 422.6 837.765 422.984 839.333 423.752C840.901 424.52 842.213 425.576 843.269 426.92C844.325 428.264 845.109 429.864 845.621 431.72C846.133 433.544 846.325 435.544 846.197 437.72H827.237C827.269 438.744 827.461 439.704 827.813 440.6C828.197 441.464 828.693 442.216 829.301 442.856C829.909 443.496 830.613 443.992 831.413 444.344C832.245 444.696 833.141 444.872 834.101 444.872C837.205 444.872 839.269 443.672 840.293 441.272H845.909C845.621 442.296 845.173 443.32 844.565 444.344C843.957 445.336 843.173 446.232 842.213 447.032C841.285 447.8 840.165 448.424 838.853 448.904C837.541 449.384 836.037 449.624 834.341 449.624ZM833.957 427.064C833.157 427.064 832.357 427.192 831.557 427.448C830.789 427.704 830.085 428.104 829.445 428.648C828.837 429.16 828.325 429.832 827.909 430.664C827.493 431.464 827.269 432.424 827.237 433.544H840.389C840.357 432.552 840.165 431.656 839.813 430.856C839.461 430.024 838.997 429.336 838.421 428.792C837.845 428.248 837.173 427.832 836.405 427.544C835.637 427.224 834.821 427.064 833.957 427.064ZM866.985 449L858.153 420.824V449H852.201V414.2H861.657L870.105 441.944L878.505 414.2H887.961V449H882.009V420.824L873.177 449H866.985ZM906.472 444.968C907.432 444.968 908.312 444.792 909.112 444.44C909.912 444.056 910.616 443.512 911.224 442.808C911.832 442.072 912.296 441.16 912.616 440.072C912.968 438.952 913.144 437.64 913.144 436.136C913.144 434.664 912.968 433.368 912.616 432.248C912.296 431.128 911.832 430.2 911.224 429.464C910.616 428.728 909.912 428.184 909.112 427.832C908.312 427.448 907.432 427.256 906.472 427.256C905.512 427.256 904.632 427.448 903.832 427.832C903.032 428.184 902.328 428.728 901.72 429.464C901.112 430.2 900.632 431.128 900.28 432.248C899.96 433.368 899.8 434.664 899.8 436.136C899.8 437.64 899.96 438.952 900.28 440.072C900.632 441.16 901.112 442.072 901.72 442.808C902.328 443.512 903.032 444.056 903.832 444.44C904.632 444.792 905.512 444.968 906.472 444.968ZM906.472 422.6C908.104 422.6 909.672 422.872 911.176 423.416C912.68 423.96 914.008 424.792 915.16 425.912C916.344 427 917.288 428.392 917.992 430.088C918.696 431.784 919.048 433.8 919.048 436.136C919.048 438.472 918.696 440.488 917.992 442.184C917.288 443.88 916.344 445.288 915.16 446.408C914.008 447.496 912.68 448.312 911.176 448.856C909.672 449.368 908.104 449.624 906.472 449.624C904.84 449.624 903.272 449.368 901.768 448.856C900.264 448.312 898.92 447.496 897.736 446.408C896.584 445.288 895.656 443.88 894.952 442.184C894.248 440.488 893.896 438.472 893.896 436.136C893.896 433.8 894.248 431.784 894.952 430.088C895.656 428.392 896.584 427 897.736 425.912C898.92 424.792 900.264 423.96 901.768 423.416C903.272 422.872 904.84 422.6 906.472 422.6ZM941.982 414.2H947.694V449H941.982V445.592C941.214 446.872 940.174 447.864 938.862 448.568C937.55 449.272 936.03 449.624 934.302 449.624C932.734 449.624 931.262 449.32 929.886 448.712C928.542 448.072 927.374 447.16 926.382 445.976C925.39 444.792 924.606 443.368 924.03 441.704C923.486 440.04 923.214 438.168 923.214 436.088C923.214 434.04 923.486 432.184 924.03 430.52C924.606 428.856 925.39 427.432 926.382 426.248C927.374 425.064 928.542 424.168 929.886 423.56C931.262 422.92 932.734 422.6 934.302 422.6C936.03 422.6 937.55 422.952 938.862 423.656C940.174 424.36 941.214 425.352 941.982 426.632V414.2ZM942.222 436.088C942.222 434.616 942.046 433.32 941.694 432.2C941.342 431.08 940.862 430.168 940.254 429.464C939.678 428.728 938.974 428.184 938.142 427.832C937.342 427.448 936.478 427.256 935.55 427.256C933.534 427.256 931.966 428.056 930.846 429.656C929.726 431.224 929.166 433.368 929.166 436.088C929.166 438.84 929.726 441.016 930.846 442.616C931.966 444.184 933.534 444.968 935.55 444.968C936.478 444.968 937.342 444.792 938.142 444.44C938.974 444.056 939.678 443.496 940.254 442.76C940.862 442.024 941.342 441.112 941.694 440.024C942.046 438.904 942.222 437.592 942.222 436.088ZM970.13 430.424C969.842 429.208 969.17 428.328 968.114 427.784C967.058 427.24 965.714 426.968 964.082 426.968C962.77 426.968 961.634 427.224 960.674 427.736C959.746 428.216 959.282 428.888 959.282 429.752C959.282 431.352 960.53 432.408 963.026 432.92L966.53 433.64C967.81 433.928 969.01 434.264 970.13 434.648C971.282 435 972.274 435.464 973.106 436.04C973.938 436.616 974.594 437.336 975.074 438.2C975.554 439.032 975.794 440.072 975.794 441.32C975.794 442.664 975.49 443.864 974.882 444.92C974.306 445.944 973.506 446.808 972.482 447.512C971.49 448.184 970.322 448.696 968.978 449.048C967.666 449.432 966.258 449.624 964.754 449.624C963.09 449.624 961.57 449.4 960.194 448.952C958.85 448.504 957.682 447.896 956.69 447.128C955.73 446.36 954.946 445.448 954.338 444.392C953.762 443.336 953.41 442.184 953.282 440.936H958.85C959.106 442.312 959.73 443.384 960.722 444.152C961.714 444.92 963.122 445.304 964.946 445.304C966.546 445.304 967.826 445.016 968.786 444.44C969.746 443.832 970.226 443.016 970.226 441.992C970.226 440.968 969.794 440.184 968.93 439.64C968.098 439.096 966.994 438.68 965.618 438.392L961.73 437.576C960.61 437.352 959.57 437.064 958.61 436.712C957.65 436.328 956.818 435.848 956.114 435.272C955.442 434.664 954.898 433.944 954.482 433.112C954.098 432.248 953.906 431.224 953.906 430.04C953.906 428.888 954.178 427.864 954.722 426.968C955.298 426.04 956.066 425.256 957.026 424.616C957.986 423.976 959.106 423.48 960.386 423.128C961.666 422.776 963.026 422.6 964.466 422.6C965.81 422.6 967.09 422.76 968.306 423.08C969.522 423.4 970.61 423.896 971.57 424.568C972.562 425.208 973.394 426.024 974.066 427.016C974.77 427.976 975.25 429.112 975.506 430.424H970.13ZM979.268 436.04C979.268 433.64 979.476 431.352 979.892 429.176C980.34 427 980.884 424.984 981.524 423.128C982.164 421.24 982.868 419.544 983.636 418.04C984.436 416.536 985.188 415.256 985.892 414.2H990.98C990.18 415.512 989.428 416.968 988.724 418.568C988.02 420.168 987.396 421.896 986.852 423.752C986.34 425.576 985.924 427.528 985.604 429.608C985.316 431.688 985.172 433.832 985.172 436.04C985.172 438.28 985.316 440.44 985.604 442.52C985.924 444.568 986.34 446.52 986.852 448.376C987.396 450.232 988.02 451.96 988.724 453.56C989.428 455.16 990.18 456.616 990.98 457.928H985.892C985.188 456.872 984.436 455.592 983.636 454.088C982.868 452.584 982.164 450.888 981.524 449C980.884 447.144 980.34 445.128 979.892 442.952C979.476 440.744 979.268 438.44 979.268 436.04ZM1002.63 436.04C1002.63 438.44 1002.43 440.744 1002.01 442.952C1001.59 445.128 1001.07 447.144 1000.43 449C999.787 450.888 999.067 452.584 998.267 454.088C997.499 455.592 996.747 456.872 996.011 457.928H990.971C991.771 456.616 992.523 455.16 993.227 453.56C993.931 451.96 994.539 450.232 995.051 448.376C995.595 446.52 996.011 444.568 996.299 442.52C996.619 440.44 996.779 438.28 996.779 436.04C996.779 433.832 996.619 431.688 996.299 429.608C996.011 427.528 995.595 425.576 995.051 423.752C994.539 421.896 993.931 420.168 993.227 418.568C992.523 416.968 991.771 415.512 990.971 414.2H996.011C996.747 415.256 997.499 416.536 998.267 418.04C999.067 419.544 999.787 421.24 1000.43 423.128C1001.07 424.984 1001.59 427 1002.01 429.176C1002.43 431.352 1002.63 433.64 1002.63 436.04ZM700.208 472.2H705.92V507H700.208V503.592C699.44 504.872 698.4 505.864 697.088 506.568C695.776 507.272 694.256 507.624 692.528 507.624C690.96 507.624 689.488 507.32 688.112 506.712C686.768 506.072 685.6 505.16 684.608 503.976C683.616 502.792 682.832 501.368 682.256 499.704C681.712 498.04 681.44 496.168 681.44 494.088C681.44 492.04 681.712 490.184 682.256 488.52C682.832 486.856 683.616 485.432 684.608 484.248C685.6 483.064 686.768 482.168 688.112 481.56C689.488 480.92 690.96 480.6 692.528 480.6C694.256 480.6 695.776 480.952 697.088 481.656C698.4 482.36 699.44 483.352 700.208 484.632V472.2ZM700.448 494.088C700.448 492.616 700.272 491.32 699.92 490.2C699.568 489.08 699.088 488.168 698.48 487.464C697.904 486.728 697.2 486.184 696.368 485.832C695.568 485.448 694.704 485.256 693.776 485.256C691.76 485.256 690.192 486.056 689.072 487.656C687.952 489.224 687.392 491.368 687.392 494.088C687.392 496.84 687.952 499.016 689.072 500.616C690.192 502.184 691.76 502.968 693.776 502.968C694.704 502.968 695.568 502.792 696.368 502.44C697.2 502.056 697.904 501.496 698.48 500.76C699.088 500.024 699.568 499.112 699.92 498.024C700.272 496.904 700.448 495.592 700.448 494.088ZM724.18 502.968C725.14 502.968 726.02 502.792 726.82 502.44C727.62 502.056 728.324 501.512 728.932 500.808C729.54 500.072 730.004 499.16 730.324 498.072C730.676 496.952 730.852 495.64 730.852 494.136C730.852 492.664 730.676 491.368 730.324 490.248C730.004 489.128 729.54 488.2 728.932 487.464C728.324 486.728 727.62 486.184 726.82 485.832C726.02 485.448 725.14 485.256 724.18 485.256C723.22 485.256 722.34 485.448 721.54 485.832C720.74 486.184 720.036 486.728 719.428 487.464C718.82 488.2 718.34 489.128 717.988 490.248C717.668 491.368 717.508 492.664 717.508 494.136C717.508 495.64 717.668 496.952 717.988 498.072C718.34 499.16 718.82 500.072 719.428 500.808C720.036 501.512 720.74 502.056 721.54 502.44C722.34 502.792 723.22 502.968 724.18 502.968ZM724.18 480.6C725.812 480.6 727.38 480.872 728.884 481.416C730.388 481.96 731.716 482.792 732.868 483.912C734.052 485 734.996 486.392 735.7 488.088C736.404 489.784 736.756 491.8 736.756 494.136C736.756 496.472 736.404 498.488 735.7 500.184C734.996 501.88 734.052 503.288 732.868 504.408C731.716 505.496 730.388 506.312 728.884 506.856C727.38 507.368 725.812 507.624 724.18 507.624C722.548 507.624 720.98 507.368 719.476 506.856C717.972 506.312 716.628 505.496 715.444 504.408C714.292 503.288 713.364 501.88 712.66 500.184C711.956 498.488 711.604 496.472 711.604 494.136C711.604 491.8 711.956 489.784 712.66 488.088C713.364 486.392 714.292 485 715.444 483.912C716.628 482.792 717.972 481.96 719.476 481.416C720.98 480.872 722.548 480.6 724.18 480.6ZM753.841 481.176H759.745L764.209 499.512L768.001 481.176H774.193L767.329 507H761.905L756.817 487.896L751.729 507H746.305L739.441 481.176H745.633L749.425 499.512L753.841 481.176ZM784.339 484.776C785.075 483.432 786.099 482.408 787.411 481.704C788.755 480.968 790.339 480.6 792.163 480.6C793.731 480.6 795.059 480.84 796.147 481.32C797.267 481.8 798.179 482.488 798.883 483.384C799.587 484.28 800.099 485.352 800.419 486.6C800.771 487.848 800.947 489.24 800.947 490.776V507H795.235V492.168C795.235 491.304 795.187 490.456 795.091 489.624C794.995 488.792 794.771 488.056 794.419 487.416C794.099 486.744 793.603 486.216 792.931 485.832C792.291 485.448 791.427 485.256 790.339 485.256C789.251 485.256 788.323 485.464 787.555 485.88C786.787 486.264 786.163 486.808 785.683 487.512C785.203 488.216 784.851 489.064 784.627 490.056C784.435 491.048 784.339 492.12 784.339 493.272V507H778.627V481.176H784.339V484.776ZM813.565 507H807.853V472.2H813.565V507ZM831.802 502.968C832.762 502.968 833.642 502.792 834.442 502.44C835.242 502.056 835.946 501.512 836.554 500.808C837.162 500.072 837.626 499.16 837.946 498.072C838.298 496.952 838.474 495.64 838.474 494.136C838.474 492.664 838.298 491.368 837.946 490.248C837.626 489.128 837.162 488.2 836.554 487.464C835.946 486.728 835.242 486.184 834.442 485.832C833.642 485.448 832.762 485.256 831.802 485.256C830.842 485.256 829.962 485.448 829.162 485.832C828.362 486.184 827.658 486.728 827.05 487.464C826.442 488.2 825.962 489.128 825.61 490.248C825.29 491.368 825.13 492.664 825.13 494.136C825.13 495.64 825.29 496.952 825.61 498.072C825.962 499.16 826.442 500.072 827.05 500.808C827.658 501.512 828.362 502.056 829.162 502.44C829.962 502.792 830.842 502.968 831.802 502.968ZM831.802 480.6C833.434 480.6 835.002 480.872 836.506 481.416C838.01 481.96 839.338 482.792 840.49 483.912C841.674 485 842.618 486.392 843.322 488.088C844.026 489.784 844.378 491.8 844.378 494.136C844.378 496.472 844.026 498.488 843.322 500.184C842.618 501.88 841.674 503.288 840.49 504.408C839.338 505.496 838.01 506.312 836.506 506.856C835.002 507.368 833.434 507.624 831.802 507.624C830.17 507.624 828.602 507.368 827.098 506.856C825.594 506.312 824.25 505.496 823.066 504.408C821.914 503.288 820.986 501.88 820.282 500.184C819.578 498.488 819.226 496.472 819.226 494.136C819.226 491.8 819.578 489.784 820.282 488.088C820.986 486.392 821.914 485 823.066 483.912C824.25 482.792 825.594 481.96 827.098 481.416C828.602 480.872 830.17 480.6 831.802 480.6ZM865.788 494.856C863.74 495.048 861.996 495.272 860.556 495.528C859.116 495.784 857.932 496.104 857.004 496.488C856.076 496.872 855.388 497.336 854.94 497.88C854.524 498.392 854.316 499.016 854.316 499.752C854.316 500.872 854.748 501.752 855.612 502.392C856.476 503.032 857.628 503.352 859.068 503.352C861.18 503.352 862.828 502.776 864.012 501.624C865.196 500.44 865.788 498.488 865.788 495.768V494.856ZM860.364 480.408C861.964 480.408 863.436 480.6 864.78 480.984C866.156 481.368 867.34 481.992 868.332 482.856C869.324 483.72 870.076 484.856 870.588 486.264C871.132 487.672 871.388 489.4 871.356 491.448C871.356 491.768 871.34 492.2 871.308 492.744C871.308 493.256 871.308 493.816 871.308 494.424C871.308 495.032 871.292 495.672 871.26 496.344C871.26 496.984 871.26 497.592 871.26 498.168C871.26 499.8 871.324 501.416 871.452 503.016C871.58 504.584 871.772 505.912 872.028 507H866.796C866.7 506.456 866.604 505.928 866.508 505.416C866.444 504.904 866.38 504.2 866.316 503.304C865.516 504.744 864.38 505.832 862.908 506.568C861.436 507.272 859.74 507.624 857.82 507.624C856.412 507.624 855.116 507.432 853.932 507.048C852.78 506.696 851.772 506.184 850.908 505.512C850.076 504.84 849.42 504.04 848.94 503.112C848.492 502.152 848.268 501.08 848.268 499.896C848.268 498.296 848.732 496.968 849.66 495.912C850.588 494.856 851.836 493.992 853.404 493.32C855.004 492.648 856.844 492.136 858.924 491.784C861.036 491.432 863.276 491.128 865.644 490.872V490.248C865.644 489.16 865.5 488.264 865.212 487.56C864.924 486.824 864.524 486.248 864.012 485.832C863.532 485.384 862.956 485.08 862.284 484.92C861.612 484.728 860.876 484.632 860.076 484.632C858.604 484.632 857.372 485.016 856.38 485.784C855.388 486.552 854.86 487.72 854.796 489.288H849.18C849.276 487.976 849.612 486.776 850.188 485.688C850.764 484.6 851.532 483.672 852.492 482.904C853.484 482.104 854.636 481.496 855.948 481.08C857.292 480.632 858.764 480.408 860.364 480.408ZM895.084 472.2H900.796V507H895.084V503.592C894.316 504.872 893.276 505.864 891.964 506.568C890.652 507.272 889.132 507.624 887.404 507.624C885.836 507.624 884.364 507.32 882.988 506.712C881.644 506.072 880.476 505.16 879.484 503.976C878.492 502.792 877.708 501.368 877.132 499.704C876.588 498.04 876.316 496.168 876.316 494.088C876.316 492.04 876.588 490.184 877.132 488.52C877.708 486.856 878.492 485.432 879.484 484.248C880.476 483.064 881.644 482.168 882.988 481.56C884.364 480.92 885.836 480.6 887.404 480.6C889.132 480.6 890.652 480.952 891.964 481.656C893.276 482.36 894.316 483.352 895.084 484.632V472.2ZM895.324 494.088C895.324 492.616 895.148 491.32 894.796 490.2C894.444 489.08 893.964 488.168 893.356 487.464C892.78 486.728 892.076 486.184 891.244 485.832C890.444 485.448 889.58 485.256 888.652 485.256C886.636 485.256 885.068 486.056 883.948 487.656C882.828 489.224 882.268 491.368 882.268 494.088C882.268 496.84 882.828 499.016 883.948 500.616C885.068 502.184 886.636 502.968 888.652 502.968C889.58 502.968 890.444 502.792 891.244 502.44C892.076 502.056 892.78 501.496 893.356 500.76C893.964 500.024 894.444 499.112 894.796 498.024C895.148 496.904 895.324 495.592 895.324 494.088ZM923.28 507L914.448 478.824V507H908.496V472.2H917.952L926.4 499.944L934.8 472.2H944.256V507H938.304V478.824L929.472 507H923.28ZM962.767 502.968C963.727 502.968 964.607 502.792 965.407 502.44C966.207 502.056 966.911 501.512 967.519 500.808C968.127 500.072 968.591 499.16 968.911 498.072C969.263 496.952 969.439 495.64 969.439 494.136C969.439 492.664 969.263 491.368 968.911 490.248C968.591 489.128 968.127 488.2 967.519 487.464C966.911 486.728 966.207 486.184 965.407 485.832C964.607 485.448 963.727 485.256 962.767 485.256C961.807 485.256 960.927 485.448 960.127 485.832C959.327 486.184 958.623 486.728 958.015 487.464C957.407 488.2 956.927 489.128 956.575 490.248C956.255 491.368 956.095 492.664 956.095 494.136C956.095 495.64 956.255 496.952 956.575 498.072C956.927 499.16 957.407 500.072 958.015 500.808C958.623 501.512 959.327 502.056 960.127 502.44C960.927 502.792 961.807 502.968 962.767 502.968ZM962.767 480.6C964.399 480.6 965.967 480.872 967.471 481.416C968.975 481.96 970.303 482.792 971.455 483.912C972.639 485 973.583 486.392 974.287 488.088C974.991 489.784 975.343 491.8 975.343 494.136C975.343 496.472 974.991 498.488 974.287 500.184C973.583 501.88 972.639 503.288 971.455 504.408C970.303 505.496 968.975 506.312 967.471 506.856C965.967 507.368 964.399 507.624 962.767 507.624C961.135 507.624 959.567 507.368 958.063 506.856C956.559 506.312 955.215 505.496 954.031 504.408C952.879 503.288 951.951 501.88 951.247 500.184C950.543 498.488 950.191 496.472 950.191 494.136C950.191 491.8 950.543 489.784 951.247 488.088C951.951 486.392 952.879 485 954.031 483.912C955.215 482.792 956.559 481.96 958.063 481.416C959.567 480.872 961.135 480.6 962.767 480.6ZM998.277 472.2H1003.99V507H998.277V503.592C997.509 504.872 996.469 505.864 995.157 506.568C993.845 507.272 992.325 507.624 990.597 507.624C989.029 507.624 987.557 507.32 986.181 506.712C984.837 506.072 983.669 505.16 982.677 503.976C981.685 502.792 980.901 501.368 980.325 499.704C979.781 498.04 979.509 496.168 979.509 494.088C979.509 492.04 979.781 490.184 980.325 488.52C980.901 486.856 981.685 485.432 982.677 484.248C983.669 483.064 984.837 482.168 986.181 481.56C987.557 480.92 989.029 480.6 990.597 480.6C992.325 480.6 993.845 480.952 995.157 481.656C996.469 482.36 997.509 483.352 998.277 484.632V472.2ZM998.517 494.088C998.517 492.616 998.341 491.32 997.989 490.2C997.637 489.08 997.157 488.168 996.549 487.464C995.973 486.728 995.269 486.184 994.437 485.832C993.637 485.448 992.773 485.256 991.845 485.256C989.829 485.256 988.261 486.056 987.141 487.656C986.021 489.224 985.461 491.368 985.461 494.088C985.461 496.84 986.021 499.016 987.141 500.616C988.261 502.184 989.829 502.968 991.845 502.968C992.773 502.968 993.637 502.792 994.437 502.44C995.269 502.056 995.973 501.496 996.549 500.76C997.157 500.024 997.637 499.112 997.989 498.024C998.341 496.904 998.517 495.592 998.517 494.088ZM1009.34 494.04C1009.34 491.64 1009.54 489.352 1009.96 487.176C1010.41 485 1010.95 482.984 1011.59 481.128C1012.23 479.24 1012.94 477.544 1013.7 476.04C1014.5 474.536 1015.26 473.256 1015.96 472.2H1021.05C1020.25 473.512 1019.5 474.968 1018.79 476.568C1018.09 478.168 1017.46 479.896 1016.92 481.752C1016.41 483.576 1015.99 485.528 1015.67 487.608C1015.38 489.688 1015.24 491.832 1015.24 494.04C1015.24 496.28 1015.38 498.44 1015.67 500.52C1015.99 502.568 1016.41 504.52 1016.92 506.376C1017.46 508.232 1018.09 509.96 1018.79 511.56C1019.5 513.16 1020.25 514.616 1021.05 515.928H1015.96C1015.26 514.872 1014.5 513.592 1013.7 512.088C1012.94 510.584 1012.23 508.888 1011.59 507C1010.95 505.144 1010.41 503.128 1009.96 500.952C1009.54 498.744 1009.34 496.44 1009.34 494.04ZM1032.7 494.04C1032.7 496.44 1032.5 498.744 1032.08 500.952C1031.66 503.128 1031.14 505.144 1030.5 507C1029.86 508.888 1029.14 510.584 1028.34 512.088C1027.57 513.592 1026.82 514.872 1026.08 515.928H1021.04C1021.84 514.616 1022.59 513.16 1023.3 511.56C1024 509.96 1024.61 508.232 1025.12 506.376C1025.66 504.52 1026.08 502.568 1026.37 500.52C1026.69 498.44 1026.85 496.28 1026.85 494.04C1026.85 491.832 1026.69 489.688 1026.37 487.608C1026.08 485.528 1025.66 483.576 1025.12 481.752C1024.61 479.896 1024 478.168 1023.3 476.568C1022.59 474.968 1021.84 473.512 1021.04 472.2H1026.08C1026.82 473.256 1027.57 474.536 1028.34 476.04C1029.14 477.544 1029.86 479.24 1030.5 481.128C1031.14 482.984 1031.66 485 1032.08 487.176C1032.5 489.352 1032.7 491.64 1032.7 494.04Z" fill="white"/>
<path opacity="0.75" d="M699.152 1281.45C698.416 1282.79 697.392 1283.83 696.08 1284.57C694.8 1285.27 693.28 1285.62 691.52 1285.62C689.984 1285.62 688.672 1285.38 687.584 1284.9C686.496 1284.42 685.6 1283.74 684.896 1282.84C684.192 1281.94 683.68 1280.87 683.36 1279.62C683.04 1278.38 682.88 1276.98 682.88 1275.45V1259.18H688.592V1274.06C688.592 1274.92 688.64 1275.77 688.736 1276.6C688.832 1277.43 689.04 1278.18 689.36 1278.86C689.68 1279.5 690.16 1280.01 690.8 1280.39C691.44 1280.78 692.288 1280.97 693.344 1280.97C694.4 1280.97 695.296 1280.78 696.032 1280.39C696.8 1279.98 697.408 1279.42 697.856 1278.71C698.304 1278.01 698.624 1277.16 698.816 1276.17C699.04 1275.18 699.152 1274.1 699.152 1272.95V1259.18H704.864V1285H699.152V1281.45ZM717.726 1272.09C717.726 1273.59 717.886 1274.9 718.206 1276.02C718.558 1277.11 719.038 1278.02 719.646 1278.76C720.254 1279.5 720.958 1280.06 721.758 1280.44C722.59 1280.79 723.47 1280.97 724.398 1280.97C726.414 1280.97 727.982 1280.18 729.102 1278.62C730.222 1277.02 730.782 1274.84 730.782 1272.09C730.782 1269.37 730.222 1267.22 729.102 1265.66C727.982 1264.06 726.414 1263.26 724.398 1263.26C723.47 1263.26 722.59 1263.45 721.758 1263.83C720.958 1264.18 720.254 1264.73 719.646 1265.46C719.038 1266.17 718.558 1267.08 718.206 1268.2C717.886 1269.32 717.726 1270.62 717.726 1272.09ZM717.966 1259.18V1262.63C718.734 1261.35 719.774 1260.36 721.086 1259.66C722.398 1258.95 723.918 1258.6 725.646 1258.6C727.214 1258.6 728.67 1258.92 730.014 1259.56C731.39 1260.17 732.574 1261.06 733.566 1262.25C734.558 1263.43 735.326 1264.86 735.87 1266.52C736.446 1268.18 736.734 1270.04 736.734 1272.09C736.734 1274.17 736.446 1276.04 735.87 1277.7C735.326 1279.37 734.558 1280.79 733.566 1281.98C732.574 1283.16 731.39 1284.07 730.014 1284.71C728.67 1285.32 727.214 1285.62 725.646 1285.62C723.918 1285.62 722.398 1285.27 721.086 1284.57C719.774 1283.86 718.734 1282.87 717.966 1281.59V1293.4H712.254V1259.18H717.966ZM748.082 1285H742.37V1250.2H748.082V1285ZM766.319 1280.97C767.279 1280.97 768.159 1280.79 768.959 1280.44C769.759 1280.06 770.463 1279.51 771.071 1278.81C771.679 1278.07 772.143 1277.16 772.463 1276.07C772.815 1274.95 772.991 1273.64 772.991 1272.14C772.991 1270.66 772.815 1269.37 772.463 1268.25C772.143 1267.13 771.679 1266.2 771.071 1265.46C770.463 1264.73 769.759 1264.18 768.959 1263.83C768.159 1263.45 767.279 1263.26 766.319 1263.26C765.359 1263.26 764.479 1263.45 763.679 1263.83C762.879 1264.18 762.175 1264.73 761.567 1265.46C760.959 1266.2 760.479 1267.13 760.127 1268.25C759.807 1269.37 759.647 1270.66 759.647 1272.14C759.647 1273.64 759.807 1274.95 760.127 1276.07C760.479 1277.16 760.959 1278.07 761.567 1278.81C762.175 1279.51 762.879 1280.06 763.679 1280.44C764.479 1280.79 765.359 1280.97 766.319 1280.97ZM766.319 1258.6C767.951 1258.6 769.519 1258.87 771.023 1259.42C772.527 1259.96 773.855 1260.79 775.007 1261.91C776.191 1263 777.135 1264.39 777.839 1266.09C778.543 1267.78 778.895 1269.8 778.895 1272.14C778.895 1274.47 778.543 1276.49 777.839 1278.18C777.135 1279.88 776.191 1281.29 775.007 1282.41C773.855 1283.5 772.527 1284.31 771.023 1284.86C769.519 1285.37 767.951 1285.62 766.319 1285.62C764.687 1285.62 763.119 1285.37 761.615 1284.86C760.111 1284.31 758.767 1283.5 757.583 1282.41C756.431 1281.29 755.503 1279.88 754.799 1278.18C754.095 1276.49 753.743 1274.47 753.743 1272.14C753.743 1269.8 754.095 1267.78 754.799 1266.09C755.503 1264.39 756.431 1263 757.583 1261.91C758.767 1260.79 760.111 1259.96 761.615 1259.42C763.119 1258.87 764.687 1258.6 766.319 1258.6ZM800.306 1272.86C798.258 1273.05 796.514 1273.27 795.074 1273.53C793.634 1273.78 792.45 1274.1 791.522 1274.49C790.594 1274.87 789.906 1275.34 789.458 1275.88C789.042 1276.39 788.834 1277.02 788.834 1277.75C788.834 1278.87 789.266 1279.75 790.13 1280.39C790.994 1281.03 792.146 1281.35 793.586 1281.35C795.698 1281.35 797.346 1280.78 798.53 1279.62C799.714 1278.44 800.306 1276.49 800.306 1273.77V1272.86ZM794.882 1258.41C796.482 1258.41 797.954 1258.6 799.298 1258.98C800.674 1259.37 801.858 1259.99 802.85 1260.86C803.842 1261.72 804.594 1262.86 805.106 1264.26C805.65 1265.67 805.906 1267.4 805.874 1269.45C805.874 1269.77 805.858 1270.2 805.826 1270.74C805.826 1271.26 805.826 1271.82 805.826 1272.42C805.826 1273.03 805.81 1273.67 805.778 1274.34C805.778 1274.98 805.778 1275.59 805.778 1276.17C805.778 1277.8 805.842 1279.42 805.97 1281.02C806.098 1282.58 806.29 1283.91 806.546 1285H801.314C801.218 1284.46 801.122 1283.93 801.026 1283.42C800.962 1282.9 800.898 1282.2 800.834 1281.3C800.034 1282.74 798.898 1283.83 797.426 1284.57C795.954 1285.27 794.258 1285.62 792.338 1285.62C790.93 1285.62 789.634 1285.43 788.45 1285.05C787.298 1284.7 786.29 1284.18 785.426 1283.51C784.594 1282.84 783.938 1282.04 783.458 1281.11C783.01 1280.15 782.786 1279.08 782.786 1277.9C782.786 1276.3 783.25 1274.97 784.178 1273.91C785.106 1272.86 786.354 1271.99 787.922 1271.32C789.522 1270.65 791.362 1270.14 793.442 1269.78C795.554 1269.43 797.794 1269.13 800.162 1268.87V1268.25C800.162 1267.16 800.018 1266.26 799.73 1265.56C799.442 1264.82 799.042 1264.25 798.53 1263.83C798.05 1263.38 797.474 1263.08 796.802 1262.92C796.13 1262.73 795.394 1262.63 794.594 1262.63C793.122 1262.63 791.89 1263.02 790.898 1263.78C789.906 1264.55 789.378 1265.72 789.314 1267.29H783.698C783.794 1265.98 784.13 1264.78 784.706 1263.69C785.282 1262.6 786.05 1261.67 787.01 1260.9C788.002 1260.1 789.154 1259.5 790.466 1259.08C791.81 1258.63 793.282 1258.41 794.882 1258.41ZM829.602 1250.2H835.314V1285H829.602V1281.59C828.834 1282.87 827.794 1283.86 826.482 1284.57C825.17 1285.27 823.65 1285.62 821.922 1285.62C820.354 1285.62 818.882 1285.32 817.506 1284.71C816.162 1284.07 814.994 1283.16 814.002 1281.98C813.01 1280.79 812.226 1279.37 811.65 1277.7C811.106 1276.04 810.834 1274.17 810.834 1272.09C810.834 1270.04 811.106 1268.18 811.65 1266.52C812.226 1264.86 813.01 1263.43 814.002 1262.25C814.994 1261.06 816.162 1260.17 817.506 1259.56C818.882 1258.92 820.354 1258.6 821.922 1258.6C823.65 1258.6 825.17 1258.95 826.482 1259.66C827.794 1260.36 828.834 1261.35 829.602 1262.63V1250.2ZM829.842 1272.09C829.842 1270.62 829.666 1269.32 829.314 1268.2C828.962 1267.08 828.482 1266.17 827.874 1265.46C827.298 1264.73 826.594 1264.18 825.762 1263.83C824.962 1263.45 824.098 1263.26 823.17 1263.26C821.154 1263.26 819.586 1264.06 818.466 1265.66C817.346 1267.22 816.786 1269.37 816.786 1272.09C816.786 1274.84 817.346 1277.02 818.466 1278.62C819.586 1280.18 821.154 1280.97 823.17 1280.97C824.098 1280.97 824.962 1280.79 825.762 1280.44C826.594 1280.06 827.298 1279.5 827.874 1278.76C828.482 1278.02 828.962 1277.11 829.314 1276.02C829.666 1274.9 829.842 1273.59 829.842 1272.09ZM857.798 1285L848.966 1256.82V1285H843.014V1250.2H852.47L860.918 1277.94L869.318 1250.2H878.774V1285H872.822V1256.82L863.99 1285H857.798ZM897.284 1280.97C898.244 1280.97 899.124 1280.79 899.924 1280.44C900.724 1280.06 901.428 1279.51 902.036 1278.81C902.644 1278.07 903.108 1277.16 903.428 1276.07C903.78 1274.95 903.956 1273.64 903.956 1272.14C903.956 1270.66 903.78 1269.37 903.428 1268.25C903.108 1267.13 902.644 1266.2 902.036 1265.46C901.428 1264.73 900.724 1264.18 899.924 1263.83C899.124 1263.45 898.244 1263.26 897.284 1263.26C896.324 1263.26 895.444 1263.45 894.644 1263.83C893.844 1264.18 893.14 1264.73 892.532 1265.46C891.924 1266.2 891.444 1267.13 891.092 1268.25C890.772 1269.37 890.612 1270.66 890.612 1272.14C890.612 1273.64 890.772 1274.95 891.092 1276.07C891.444 1277.16 891.924 1278.07 892.532 1278.81C893.14 1279.51 893.844 1280.06 894.644 1280.44C895.444 1280.79 896.324 1280.97 897.284 1280.97ZM897.284 1258.6C898.916 1258.6 900.484 1258.87 901.988 1259.42C903.492 1259.96 904.82 1260.79 905.972 1261.91C907.156 1263 908.1 1264.39 908.804 1266.09C909.508 1267.78 909.86 1269.8 909.86 1272.14C909.86 1274.47 909.508 1276.49 908.804 1278.18C908.1 1279.88 907.156 1281.29 905.972 1282.41C904.82 1283.5 903.492 1284.31 901.988 1284.86C900.484 1285.37 898.916 1285.62 897.284 1285.62C895.652 1285.62 894.084 1285.37 892.58 1284.86C891.076 1284.31 889.732 1283.5 888.548 1282.41C887.396 1281.29 886.468 1279.88 885.764 1278.18C885.06 1276.49 884.708 1274.47 884.708 1272.14C884.708 1269.8 885.06 1267.78 885.764 1266.09C886.468 1264.39 887.396 1263 888.548 1261.91C889.732 1260.79 891.076 1259.96 892.58 1259.42C894.084 1258.87 895.652 1258.6 897.284 1258.6ZM932.794 1250.2H938.506V1285H932.794V1281.59C932.026 1282.87 930.986 1283.86 929.674 1284.57C928.362 1285.27 926.842 1285.62 925.114 1285.62C923.546 1285.62 922.074 1285.32 920.698 1284.71C919.354 1284.07 918.186 1283.16 917.194 1281.98C916.202 1280.79 915.418 1279.37 914.842 1277.7C914.298 1276.04 914.026 1274.17 914.026 1272.09C914.026 1270.04 914.298 1268.18 914.842 1266.52C915.418 1264.86 916.202 1263.43 917.194 1262.25C918.186 1261.06 919.354 1260.17 920.698 1259.56C922.074 1258.92 923.546 1258.6 925.114 1258.6C926.842 1258.6 928.362 1258.95 929.674 1259.66C930.986 1260.36 932.026 1261.35 932.794 1262.63V1250.2ZM933.034 1272.09C933.034 1270.62 932.858 1269.32 932.506 1268.2C932.154 1267.08 931.674 1266.17 931.066 1265.46C930.49 1264.73 929.786 1264.18 928.954 1263.83C928.154 1263.45 927.29 1263.26 926.362 1263.26C924.346 1263.26 922.778 1264.06 921.658 1265.66C920.538 1267.22 919.978 1269.37 919.978 1272.09C919.978 1274.84 920.538 1277.02 921.658 1278.62C922.778 1280.18 924.346 1280.97 926.362 1280.97C927.29 1280.97 928.154 1280.79 928.954 1280.44C929.786 1280.06 930.49 1279.5 931.066 1278.76C931.674 1278.02 932.154 1277.11 932.506 1276.02C932.858 1274.9 933.034 1273.59 933.034 1272.09ZM960.943 1266.42C960.655 1265.21 959.983 1264.33 958.927 1263.78C957.871 1263.24 956.527 1262.97 954.895 1262.97C953.583 1262.97 952.447 1263.22 951.487 1263.74C950.559 1264.22 950.095 1264.89 950.095 1265.75C950.095 1267.35 951.343 1268.41 953.839 1268.92L957.343 1269.64C958.623 1269.93 959.823 1270.26 960.943 1270.65C962.095 1271 963.087 1271.46 963.919 1272.04C964.751 1272.62 965.407 1273.34 965.887 1274.2C966.367 1275.03 966.607 1276.07 966.607 1277.32C966.607 1278.66 966.303 1279.86 965.695 1280.92C965.119 1281.94 964.319 1282.81 963.295 1283.51C962.303 1284.18 961.135 1284.7 959.791 1285.05C958.479 1285.43 957.071 1285.62 955.567 1285.62C953.903 1285.62 952.383 1285.4 951.007 1284.95C949.663 1284.5 948.495 1283.9 947.503 1283.13C946.543 1282.36 945.759 1281.45 945.151 1280.39C944.575 1279.34 944.223 1278.18 944.095 1276.94H949.663C949.919 1278.31 950.543 1279.38 951.535 1280.15C952.527 1280.92 953.935 1281.3 955.759 1281.3C957.359 1281.3 958.639 1281.02 959.599 1280.44C960.559 1279.83 961.039 1279.02 961.039 1277.99C961.039 1276.97 960.607 1276.18 959.743 1275.64C958.911 1275.1 957.807 1274.68 956.431 1274.39L952.543 1273.58C951.423 1273.35 950.383 1273.06 949.423 1272.71C948.463 1272.33 947.631 1271.85 946.927 1271.27C946.255 1270.66 945.711 1269.94 945.295 1269.11C944.911 1268.25 944.719 1267.22 944.719 1266.04C944.719 1264.89 944.991 1263.86 945.535 1262.97C946.111 1262.04 946.879 1261.26 947.839 1260.62C948.799 1259.98 949.919 1259.48 951.199 1259.13C952.479 1258.78 953.839 1258.6 955.279 1258.6C956.623 1258.6 957.903 1258.76 959.119 1259.08C960.335 1259.4 961.423 1259.9 962.383 1260.57C963.375 1261.21 964.207 1262.02 964.879 1263.02C965.583 1263.98 966.063 1265.11 966.319 1266.42H960.943ZM970.08 1272.04C970.08 1269.64 970.288 1267.35 970.704 1265.18C971.152 1263 971.696 1260.98 972.336 1259.13C972.976 1257.24 973.68 1255.54 974.448 1254.04C975.248 1252.54 976 1251.26 976.704 1250.2H981.792C980.992 1251.51 980.24 1252.97 979.536 1254.57C978.832 1256.17 978.208 1257.9 977.664 1259.75C977.152 1261.58 976.736 1263.53 976.416 1265.61C976.128 1267.69 975.984 1269.83 975.984 1272.04C975.984 1274.28 976.128 1276.44 976.416 1278.52C976.736 1280.57 977.152 1282.52 977.664 1284.38C978.208 1286.23 978.832 1287.96 979.536 1289.56C980.24 1291.16 980.992 1292.62 981.792 1293.93H976.704C976 1292.87 975.248 1291.59 974.448 1290.09C973.68 1288.58 972.976 1286.89 972.336 1285C971.696 1283.14 971.152 1281.13 970.704 1278.95C970.288 1276.74 970.08 1274.44 970.08 1272.04ZM993.447 1272.04C993.447 1274.44 993.239 1276.74 992.823 1278.95C992.407 1281.13 991.879 1283.14 991.239 1285C990.599 1286.89 989.879 1288.58 989.079 1290.09C988.311 1291.59 987.559 1292.87 986.823 1293.93H981.783C982.583 1292.62 983.335 1291.16 984.039 1289.56C984.743 1287.96 985.351 1286.23 985.863 1284.38C986.407 1282.52 986.823 1280.57 987.111 1278.52C987.431 1276.44 987.591 1274.28 987.591 1272.04C987.591 1269.83 987.431 1267.69 987.111 1265.61C986.823 1263.53 986.407 1261.58 985.863 1259.75C985.351 1257.9 984.743 1256.17 984.039 1254.57C983.335 1252.97 982.583 1251.51 981.783 1250.2H986.823C987.559 1251.26 988.311 1252.54 989.079 1254.04C989.879 1255.54 990.599 1257.24 991.239 1259.13C991.879 1260.98 992.407 1263 992.823 1265.18C993.239 1267.35 993.447 1269.64 993.447 1272.04ZM694.4 1343.62C692.288 1343.62 690.416 1343.26 688.784 1342.52C687.184 1341.78 685.84 1340.79 684.752 1339.54C683.696 1338.3 682.88 1336.84 682.304 1335.18C681.76 1333.51 681.488 1331.75 681.488 1329.9C681.488 1327.94 681.792 1326.17 682.4 1324.57C683.008 1322.94 683.856 1321.53 684.944 1320.34C686.032 1319.16 687.344 1318.25 688.88 1317.61C690.416 1316.94 692.128 1316.6 694.016 1316.6C696.032 1316.6 697.824 1316.98 699.392 1317.75C700.96 1318.52 702.272 1319.58 703.328 1320.92C704.384 1322.26 705.168 1323.86 705.68 1325.72C706.192 1327.54 706.384 1329.54 706.256 1331.72H687.296C687.328 1332.74 687.52 1333.7 687.872 1334.6C688.256 1335.46 688.752 1336.22 689.36 1336.86C689.968 1337.5 690.672 1337.99 691.472 1338.34C692.304 1338.7 693.2 1338.87 694.16 1338.87C697.264 1338.87 699.328 1337.67 700.352 1335.27H705.968C705.68 1336.3 705.232 1337.32 704.624 1338.34C704.016 1339.34 703.232 1340.23 702.272 1341.03C701.344 1341.8 700.224 1342.42 698.912 1342.9C697.6 1343.38 696.096 1343.62 694.4 1343.62ZM694.016 1321.06C693.216 1321.06 692.416 1321.19 691.616 1321.45C690.848 1321.7 690.144 1322.1 689.504 1322.65C688.896 1323.16 688.384 1323.83 687.968 1324.66C687.552 1325.46 687.328 1326.42 687.296 1327.54H700.448C700.416 1326.55 700.224 1325.66 699.872 1324.86C699.52 1324.02 699.056 1323.34 698.48 1322.79C697.904 1322.25 697.232 1321.83 696.464 1321.54C695.696 1321.22 694.88 1321.06 694.016 1321.06ZM729.246 1308.2H734.958V1343H729.246V1339.59C728.478 1340.87 727.438 1341.86 726.126 1342.57C724.814 1343.27 723.294 1343.62 721.566 1343.62C719.998 1343.62 718.526 1343.32 717.15 1342.71C715.806 1342.07 714.638 1341.16 713.646 1339.98C712.654 1338.79 711.87 1337.37 711.294 1335.7C710.75 1334.04 710.478 1332.17 710.478 1330.09C710.478 1328.04 710.75 1326.18 711.294 1324.52C711.87 1322.86 712.654 1321.43 713.646 1320.25C714.638 1319.06 715.806 1318.17 717.15 1317.56C718.526 1316.92 719.998 1316.6 721.566 1316.6C723.294 1316.6 724.814 1316.95 726.126 1317.66C727.438 1318.36 728.478 1319.35 729.246 1320.63V1308.2ZM729.486 1330.09C729.486 1328.62 729.31 1327.32 728.958 1326.2C728.606 1325.08 728.126 1324.17 727.518 1323.46C726.942 1322.73 726.238 1322.18 725.406 1321.83C724.606 1321.45 723.742 1321.26 722.814 1321.26C720.798 1321.26 719.23 1322.06 718.11 1323.66C716.99 1325.22 716.43 1327.37 716.43 1330.09C716.43 1332.84 716.99 1335.02 718.11 1336.62C719.23 1338.18 720.798 1338.97 722.814 1338.97C723.742 1338.97 724.606 1338.79 725.406 1338.44C726.238 1338.06 726.942 1337.5 727.518 1336.76C728.126 1336.02 728.606 1335.11 728.958 1334.02C729.31 1332.9 729.486 1331.59 729.486 1330.09ZM748.082 1308.2V1313.96H742.37V1308.2H748.082ZM748.082 1317.18V1343H742.37V1317.18H748.082ZM756.287 1310.36H761.999V1317.18H767.183V1321.3H761.999V1335.37C761.999 1336.68 762.207 1337.56 762.623 1338.01C763.039 1338.42 763.855 1338.63 765.071 1338.63H767.135V1343H762.911C761.535 1343 760.415 1342.9 759.551 1342.71C758.687 1342.49 758.015 1342.12 757.535 1341.61C757.055 1341.1 756.719 1340.41 756.527 1339.54C756.367 1338.65 756.287 1337.54 756.287 1336.23V1321.3H752.447V1317.18H756.287V1310.36ZM787.815 1343L778.983 1314.82V1343H773.031V1308.2H782.487L790.935 1335.94L799.335 1308.2H808.791V1343H802.839V1314.82L794.007 1343H787.815ZM827.302 1338.97C828.262 1338.97 829.142 1338.79 829.942 1338.44C830.742 1338.06 831.446 1337.51 832.054 1336.81C832.662 1336.07 833.126 1335.16 833.446 1334.07C833.798 1332.95 833.974 1331.64 833.974 1330.14C833.974 1328.66 833.798 1327.37 833.446 1326.25C833.126 1325.13 832.662 1324.2 832.054 1323.46C831.446 1322.73 830.742 1322.18 829.942 1321.83C829.142 1321.45 828.262 1321.26 827.302 1321.26C826.342 1321.26 825.462 1321.45 824.662 1321.83C823.862 1322.18 823.158 1322.73 822.55 1323.46C821.942 1324.2 821.462 1325.13 821.11 1326.25C820.79 1327.37 820.63 1328.66 820.63 1330.14C820.63 1331.64 820.79 1332.95 821.11 1334.07C821.462 1335.16 821.942 1336.07 822.55 1336.81C823.158 1337.51 823.862 1338.06 824.662 1338.44C825.462 1338.79 826.342 1338.97 827.302 1338.97ZM827.302 1316.6C828.934 1316.6 830.502 1316.87 832.006 1317.42C833.51 1317.96 834.838 1318.79 835.99 1319.91C837.174 1321 838.118 1322.39 838.822 1324.09C839.526 1325.78 839.878 1327.8 839.878 1330.14C839.878 1332.47 839.526 1334.49 838.822 1336.18C838.118 1337.88 837.174 1339.29 835.99 1340.41C834.838 1341.5 833.51 1342.31 832.006 1342.86C830.502 1343.37 828.934 1343.62 827.302 1343.62C825.67 1343.62 824.102 1343.37 822.598 1342.86C821.094 1342.31 819.75 1341.5 818.566 1340.41C817.414 1339.29 816.486 1337.88 815.782 1336.18C815.078 1334.49 814.726 1332.47 814.726 1330.14C814.726 1327.8 815.078 1325.78 815.782 1324.09C816.486 1322.39 817.414 1321 818.566 1319.91C819.75 1318.79 821.094 1317.96 822.598 1317.42C824.102 1316.87 825.67 1316.6 827.302 1316.6ZM862.812 1308.2H868.524V1343H862.812V1339.59C862.044 1340.87 861.004 1341.86 859.692 1342.57C858.38 1343.27 856.86 1343.62 855.132 1343.62C853.564 1343.62 852.092 1343.32 850.716 1342.71C849.372 1342.07 848.204 1341.16 847.212 1339.98C846.22 1338.79 845.436 1337.37 844.86 1335.7C844.316 1334.04 844.044 1332.17 844.044 1330.09C844.044 1328.04 844.316 1326.18 844.86 1324.52C845.436 1322.86 846.22 1321.43 847.212 1320.25C848.204 1319.06 849.372 1318.17 850.716 1317.56C852.092 1316.92 853.564 1316.6 855.132 1316.6C856.86 1316.6 858.38 1316.95 859.692 1317.66C861.004 1318.36 862.044 1319.35 862.812 1320.63V1308.2ZM863.052 1330.09C863.052 1328.62 862.876 1327.32 862.524 1326.2C862.172 1325.08 861.692 1324.17 861.084 1323.46C860.508 1322.73 859.804 1322.18 858.972 1321.83C858.172 1321.45 857.308 1321.26 856.38 1321.26C854.364 1321.26 852.796 1322.06 851.676 1323.66C850.556 1325.22 849.996 1327.37 849.996 1330.09C849.996 1332.84 850.556 1335.02 851.676 1336.62C852.796 1338.18 854.364 1338.97 856.38 1338.97C857.308 1338.97 858.172 1338.79 858.972 1338.44C859.804 1338.06 860.508 1337.5 861.084 1336.76C861.692 1336.02 862.172 1335.11 862.524 1334.02C862.876 1332.9 863.052 1331.59 863.052 1330.09ZM873.872 1330.04C873.872 1327.64 874.08 1325.35 874.496 1323.18C874.944 1321 875.488 1318.98 876.128 1317.13C876.768 1315.24 877.472 1313.54 878.24 1312.04C879.04 1310.54 879.792 1309.26 880.496 1308.2H885.584C884.784 1309.51 884.032 1310.97 883.328 1312.57C882.624 1314.17 882 1315.9 881.456 1317.75C880.944 1319.58 880.528 1321.53 880.208 1323.61C879.92 1325.69 879.776 1327.83 879.776 1330.04C879.776 1332.28 879.92 1334.44 880.208 1336.52C880.528 1338.57 880.944 1340.52 881.456 1342.38C882 1344.23 882.624 1345.96 883.328 1347.56C884.032 1349.16 884.784 1350.62 885.584 1351.93H880.496C879.792 1350.87 879.04 1349.59 878.24 1348.09C877.472 1346.58 876.768 1344.89 876.128 1343C875.488 1341.14 874.944 1339.13 874.496 1336.95C874.08 1334.74 873.872 1332.44 873.872 1330.04ZM897.239 1330.04C897.239 1332.44 897.031 1334.74 896.615 1336.95C896.199 1339.13 895.671 1341.14 895.031 1343C894.391 1344.89 893.671 1346.58 892.871 1348.09C892.103 1349.59 891.351 1350.87 890.615 1351.93H885.575C886.375 1350.62 887.127 1349.16 887.831 1347.56C888.535 1345.96 889.143 1344.23 889.655 1342.38C890.199 1340.52 890.615 1338.57 890.903 1336.52C891.223 1334.44 891.383 1332.28 891.383 1330.04C891.383 1327.83 891.223 1325.69 890.903 1323.61C890.615 1321.53 890.199 1319.58 889.655 1317.75C889.143 1315.9 888.535 1314.17 887.831 1312.57C887.127 1310.97 886.375 1309.51 885.575 1308.2H890.615C891.351 1309.26 892.103 1310.54 892.871 1312.04C893.671 1313.54 894.391 1315.24 895.031 1317.13C895.671 1318.98 896.199 1321 896.615 1323.18C897.031 1325.35 897.239 1327.64 897.239 1330.04Z" fill="white"/>
<path d="M3158.08 298.4C3171.35 298.4 3181.82 303.216 3181.82 318.672C3181.82 334.184 3171.35 339 3158.08 339H3144.7V298.4H3158.08ZM3158.25 306.464H3154.27V330.936H3158.25C3165.3 330.936 3171.69 329.424 3171.69 318.672C3171.69 307.976 3165.3 306.464 3158.25 306.464ZM3198.95 298.4H3209.48L3224.82 339H3214.4L3211.94 331.776H3196.26L3193.85 339H3183.66L3198.95 298.4ZM3198.89 323.992H3209.36L3204.16 308.536L3198.89 323.992ZM3234.68 306.8H3221.69V298.4H3257.36V306.8H3244.32V339H3234.68V306.8ZM3271.27 298.4H3281.8L3297.14 339H3286.72L3284.26 331.776H3268.58L3266.17 339H3255.98L3271.27 298.4ZM3271.21 323.992H3281.68L3276.48 308.536L3271.21 323.992ZM3303.33 298.4H3321.03C3329.93 298.4 3336.54 300.472 3336.54 308.928C3336.54 312.624 3334.81 315.48 3331.73 317.384C3335.48 318.728 3338.17 321.584 3338.17 326.512C3338.17 335.584 3331.61 339 3321.76 339H3303.33V298.4ZM3312.91 314.64H3321.37C3324.67 314.64 3326.57 313.016 3326.57 310.496C3326.57 307.976 3324.67 306.464 3321.37 306.464H3312.91V314.64ZM3312.91 330.936H3321.87C3325.96 330.936 3328.03 329.2 3328.03 326.344C3328.03 323.488 3325.96 321.752 3321.87 321.752H3312.91V330.936ZM3357.42 298.4H3367.95L3383.29 339H3372.88L3370.41 331.776H3354.73L3352.33 339H3342.13L3357.42 298.4ZM3357.37 323.992H3367.84L3362.63 308.536L3357.37 323.992ZM3403.55 305.4C3399.85 305.4 3397.11 306.8 3397.11 309.32C3397.11 311.336 3399.01 312.792 3401.81 313.408L3407.36 314.528C3413.91 315.872 3422.2 317.888 3422.2 326.4C3422.2 334.912 3413.63 339.728 3405.17 339.728C3394.76 339.728 3387.92 334.52 3386.47 325.784H3395.99C3397.05 330.04 3400.41 332 3405.4 332C3408.64 332 3412.34 330.936 3412.34 327.576C3412.34 324.944 3409.2 323.656 3404.78 322.704L3399.85 321.696C3393.24 320.296 3387.25 317.16 3387.25 309.88C3387.25 301.592 3396.16 297.728 3404.11 297.728C3412.06 297.728 3419.62 301.2 3421.02 310.16H3411.56C3410.6 307.136 3407.64 305.4 3403.55 305.4ZM3429.8 298.4H3460.94V306.8H3439.38V313.912H3459.76V322.368H3439.38V330.544H3460.94V339H3429.8V298.4Z" fill="white"/>
<rect x="160" y="400" width="320" height="320" rx="160" fill="#0E101A"/>
<g clip-path="url(#clip3_5_2261)">
<path d="M360.017 520H280C273.405 519.999 266.912 521.629 261.099 524.744C255.286 527.86 250.333 532.364 246.682 537.857C243.031 543.349 240.795 549.659 240.173 556.225C239.55 562.791 240.561 569.409 243.115 575.489C245.669 581.57 249.687 586.925 254.811 591.077C259.935 595.229 266.006 598.05 272.484 599.289C278.962 600.527 285.645 600.144 291.939 598.175C298.234 596.205 303.943 592.71 308.56 588H331.44C336.056 592.709 341.765 596.204 348.058 598.174C354.352 600.144 361.035 600.527 367.512 599.289C373.989 598.052 380.06 595.232 385.184 591.081C390.308 586.93 394.327 581.577 396.881 575.497C399.436 569.418 400.449 562.801 399.828 556.236C399.208 549.671 396.973 543.361 393.325 537.868C389.676 532.375 384.726 527.869 378.915 524.752C373.104 521.634 366.612 520.002 360.017 520ZM302 563C302 563.796 301.684 564.559 301.121 565.121C300.559 565.684 299.796 566 299 566H286V579C286 579.796 285.684 580.559 285.121 581.121C284.559 581.684 283.796 582 283 582H277C276.204 582 275.441 581.684 274.879 581.121C274.316 580.559 274 579.796 274 579V566H261C260.204 566 259.441 565.684 258.879 565.121C258.316 564.559 258 563.796 258 563V557C258 556.204 258.316 555.441 258.879 554.879C259.441 554.316 260.204 554 261 554H274V541C274 540.204 274.316 539.441 274.879 538.879C275.441 538.316 276.204 538 277 538H283C283.796 538 284.559 538.316 285.121 538.879C285.684 539.441 286 540.204 286 541V554H299C299.796 554 300.559 554.316 301.121 554.879C301.684 555.441 302 556.204 302 557V563ZM356 582C354.022 582 352.089 581.414 350.444 580.315C348.8 579.216 347.518 577.654 346.761 575.827C346.004 574 345.806 571.989 346.192 570.049C346.578 568.109 347.53 566.327 348.929 564.929C350.327 563.53 352.109 562.578 354.049 562.192C355.989 561.806 357.999 562.004 359.827 562.761C361.654 563.518 363.216 564.8 364.315 566.444C365.413 568.089 366 570.022 366 572C366 574.652 364.946 577.196 363.071 579.071C361.196 580.946 358.652 582 356 582ZM372 558C370.022 558 368.089 557.414 366.444 556.315C364.8 555.216 363.518 553.654 362.761 551.827C362.004 550 361.806 547.989 362.192 546.049C362.578 544.109 363.53 542.327 364.929 540.929C366.327 539.53 368.109 538.578 370.049 538.192C371.989 537.806 373.999 538.004 375.827 538.761C377.654 539.518 379.216 540.8 380.315 542.444C381.413 544.089 382 546.022 382 548C382 550.652 380.946 553.196 379.071 555.071C377.196 556.946 374.652 558 372 558Z" fill="white"/>
</g>
<rect x="160" y="1040" width="320" height="320" rx="160" fill="#0E101A"/>
<g clip-path="url(#clip4_5_2261)">
<path d="M368.027 1183.75L365.977 1187.32C365.227 1188.65 363.627 1189.2 362.202 1188.67C359.252 1187.57 356.552 1186 354.177 1184.02C353.027 1183.07 352.727 1181.4 353.477 1180.1L355.527 1176.52C353.802 1174.52 352.452 1172.2 351.552 1169.67H347.427C345.927 1169.67 344.627 1168.6 344.377 1167.1C343.877 1164.1 343.852 1160.95 344.377 1157.82C344.627 1156.32 345.927 1155.22 347.427 1155.22H351.552C352.452 1152.7 353.802 1150.37 355.527 1148.37L353.477 1144.8C352.727 1143.5 353.002 1141.82 354.177 1140.87C356.552 1138.9 359.277 1137.32 362.202 1136.22C363.627 1135.7 365.227 1136.25 365.977 1137.57L368.027 1141.15C370.652 1140.67 373.327 1140.67 375.952 1141.15L378.002 1137.57C378.752 1136.25 380.352 1135.7 381.777 1136.22C384.727 1137.32 387.427 1138.9 389.802 1140.87C390.952 1141.82 391.252 1143.5 390.502 1144.8L388.452 1148.37C390.177 1150.37 391.527 1152.7 392.427 1155.22H396.552C398.052 1155.22 399.352 1156.3 399.602 1157.8C400.102 1160.8 400.127 1163.95 399.602 1167.07C399.352 1168.57 398.052 1169.67 396.552 1169.67H392.427C391.527 1172.2 390.177 1174.52 388.452 1176.52L390.502 1180.1C391.252 1181.4 390.977 1183.07 389.802 1184.02C387.427 1186 384.702 1187.57 381.777 1188.67C380.352 1189.2 378.752 1188.65 378.002 1187.32L375.952 1183.75C373.352 1184.22 370.652 1184.22 368.027 1183.75ZM365.402 1169.05C375.027 1176.45 386.002 1165.47 378.602 1155.85C368.977 1148.42 358.002 1159.42 365.402 1169.05ZM336.577 1207.52L345.002 1211.72C347.527 1213.17 348.627 1216.25 347.627 1219C345.402 1225.05 341.027 1230.6 336.977 1235.45C335.127 1237.67 331.927 1238.22 329.402 1236.77L322.127 1232.57C318.127 1236 313.477 1238.72 308.402 1240.5V1248.9C308.402 1251.8 306.327 1254.3 303.477 1254.8C297.327 1255.85 290.877 1255.9 284.502 1254.8C281.627 1254.3 279.502 1251.82 279.502 1248.9V1240.5C274.427 1238.7 269.777 1236 265.777 1232.57L258.502 1236.75C256.002 1238.2 252.777 1237.65 250.927 1235.42C246.877 1230.57 242.602 1225.02 240.377 1219C239.377 1216.27 240.477 1213.2 243.002 1211.72L251.327 1207.52C250.352 1202.3 250.352 1196.92 251.327 1191.67L243.002 1187.45C240.477 1186 239.352 1182.92 240.377 1180.2C242.602 1174.15 246.877 1168.6 250.927 1163.75C252.777 1161.52 255.977 1160.97 258.502 1162.42L265.777 1166.62C269.777 1163.2 274.427 1160.47 279.502 1158.7V1150.27C279.502 1147.4 281.552 1144.9 284.402 1144.4C290.552 1143.35 297.027 1143.3 303.402 1144.37C306.277 1144.87 308.402 1147.35 308.402 1150.27V1158.67C313.477 1160.47 318.127 1163.17 322.127 1166.6L329.402 1162.4C331.902 1160.95 335.127 1161.5 336.977 1163.72C341.027 1168.57 345.277 1174.12 347.502 1180.17C348.502 1182.9 347.527 1185.97 345.002 1187.45L336.577 1191.65C337.552 1196.9 337.552 1202.27 336.577 1207.52ZM307.177 1212.8C321.977 1193.55 300.002 1171.57 280.752 1186.37C265.952 1205.62 287.927 1227.6 307.177 1212.8ZM368.027 1258.47L365.977 1262.05C365.227 1263.37 363.627 1263.92 362.202 1263.4C359.252 1262.3 356.552 1260.72 354.177 1258.75C353.027 1257.8 352.727 1256.12 353.477 1254.82L355.527 1251.25C353.802 1249.25 352.452 1246.92 351.552 1244.4H347.427C345.927 1244.4 344.627 1243.32 344.377 1241.82C343.877 1238.82 343.852 1235.67 344.377 1232.55C344.627 1231.05 345.927 1229.95 347.427 1229.95H351.552C352.452 1227.42 353.802 1225.1 355.527 1223.1L353.477 1219.52C352.727 1218.22 353.002 1216.55 354.177 1215.6C356.552 1213.62 359.277 1212.05 362.202 1210.95C363.627 1210.42 365.227 1210.97 365.977 1212.3L368.027 1215.87C370.652 1215.4 373.327 1215.4 375.952 1215.87L378.002 1212.3C378.752 1210.97 380.352 1210.42 381.777 1210.95C384.727 1212.05 387.427 1213.62 389.802 1215.6C390.952 1216.55 391.252 1218.22 390.502 1219.52L388.452 1223.1C390.177 1225.1 391.527 1227.42 392.427 1229.95H396.552C398.052 1229.95 399.352 1231.02 399.602 1232.52C400.102 1235.52 400.127 1238.67 399.602 1241.8C399.352 1243.3 398.052 1244.4 396.552 1244.4H392.427C391.527 1246.92 390.177 1249.25 388.452 1251.25L390.502 1254.82C391.252 1256.12 390.977 1257.8 389.802 1258.75C387.427 1260.72 384.702 1262.3 381.777 1263.4C380.352 1263.92 378.752 1263.37 378.002 1262.05L375.952 1258.47C373.352 1258.95 370.652 1258.95 368.027 1258.47ZM365.402 1243.75C375.027 1251.15 386.002 1240.17 378.602 1230.55C368.977 1223.15 358.002 1234.12 365.402 1243.75Z" fill="white"/>
</g>
<path d="M480 560L520 583.094V536.906L480 560ZM1040 840L1000 816.906V863.094L1040 840ZM516 560V564H754.405V560V556H516V560ZM778.405 584H774.405V816H778.405H782.405V584H778.405ZM802.405 840V844H1004V840V836H802.405V840ZM778.405 816H774.405C774.405 831.464 786.941 844 802.405 844V840V836C791.36 836 782.405 827.046 782.405 816H778.405ZM754.405 560V564C765.451 564 774.405 572.954 774.405 584H778.405H782.405C782.405 568.536 769.869 556 754.405 556V560Z" fill="white" fill-opacity="0.5"/>
<path d="M480 1200L520 1176.91V1223.09L480 1200ZM1040 920L1000 943.094V896.906L1040 920ZM516 1200V1196H754.405V1200V1204H516V1200ZM778.405 1176H774.405V944H778.405H782.405V1176H778.405ZM802.405 920V916H1004V920V924H802.405V920ZM778.405 944H774.405C774.405 928.536 786.941 916 802.405 916V920V924C791.36 924 782.405 932.954 782.405 944H778.405ZM754.405 1200V1196C765.451 1196 774.405 1187.05 774.405 1176H778.405H782.405C782.405 1191.46 769.869 1204 754.405 1204V1200Z" fill="white" fill-opacity="0.5"/>
<path d="M1360 876L1400 899.094V852.906L1360 876ZM1920 876L1880 852.906V899.094L1920 876ZM1396 876V880H1884V876V872H1396V876Z" fill="white" fill-opacity="0.5"/>
<path d="M2240 876L2280 899.094V852.906L2240 876ZM2800 876L2760 852.906V899.094L2800 876ZM2276 876V880H2764V876V872H2276V876Z" fill="white" fill-opacity="0.5"/>
<path d="M2957 480L2933.91 520L2980.09 520L2957 480ZM2957 720L2980.09 680L2933.91 680L2957 720ZM2957 516L2953 516L2953 684L2957 684L2961 684L2961 516L2957 516Z" fill="white" fill-opacity="0.5"/>
<path d="M2957 1040L2933.91 1080L2980.09 1080L2957 1040ZM2957 1280L2980.09 1240L2933.91 1240L2957 1280ZM2957 1076L2953 1076L2953 1244L2957 1244L2961 1244L2961 1076L2957 1076Z" fill="white" fill-opacity="0.5"/>
<g clip-path="url(#clip5_5_2261)">
<path fill-rule="evenodd" clip-rule="evenodd" d="M2643.83 818.801H2643.37V815.652H2642.31V815.212H2644.89V815.652H2643.83L2643.83 818.801ZM2647.02 817.968L2648 815.212H2648.72V818.803H2648.24V815.801L2647.15 818.801H2646.86L2645.77 815.801V818.801H2645.32V815.209H2646.04L2647.02 817.968ZM2626.47 819.464C2635.29 819.464 2641.45 813.308 2641.45 805.327C2641.45 797.345 2635.29 791.189 2626.47 791.189C2617.65 791.189 2611.49 797.345 2611.49 805.327C2611.49 813.308 2617.65 819.464 2626.47 819.464ZM2626.47 812.161C2622.45 812.161 2619.63 809.344 2619.63 805.327C2619.63 801.309 2622.45 798.492 2626.47 798.492C2630.49 798.492 2633.31 801.309 2633.31 805.327C2633.31 809.344 2630.49 812.161 2626.47 812.161ZM2600.3 787.85H2608.44V780.389H2600.3V787.85ZM2600.3 818.63H2608.44V792.023H2600.3V818.63ZM2589.02 818.63H2597.02V810.627H2589.02V818.63ZM2577.66 783.732V793.536C2575.46 792.023 2572.75 791.189 2569.67 791.189C2561.79 791.189 2556.05 796.927 2556.05 805.326C2556.05 813.726 2561.79 819.464 2569.72 819.464C2573.43 819.464 2576.66 818.212 2579.01 816.021L2580.21 818.63H2585.85V780.389L2577.66 783.732ZM2571.18 812.161C2567.11 812.161 2564.19 809.239 2564.19 805.326C2564.19 801.414 2567.11 798.492 2571.18 798.492C2575.25 798.492 2578.18 801.414 2578.18 805.326C2578.18 809.239 2575.25 812.161 2571.18 812.161ZM2538.64 819.464C2547.46 819.464 2553.62 813.308 2553.62 805.327C2553.62 797.345 2547.46 791.189 2538.64 791.189C2529.82 791.189 2523.66 797.345 2523.66 805.327C2523.66 813.308 2529.82 819.464 2538.64 819.464ZM2538.64 812.161C2534.62 812.161 2531.81 809.344 2531.81 805.327C2531.81 801.309 2534.62 798.492 2538.64 798.492C2542.66 798.492 2545.48 801.309 2545.48 805.327C2545.48 809.344 2542.66 812.161 2538.64 812.161ZM2511.05 791.189C2507.61 791.189 2504.37 792.701 2502.44 795.362C2500.77 792.649 2497.95 791.189 2494.35 791.189C2491.16 791.189 2488.14 792.545 2486.15 794.84L2484.85 792.023H2479.21V818.63H2487.35V804.648C2487.35 800.579 2489.44 798.492 2492.05 798.492C2494.4 798.492 2495.91 800.005 2495.91 803.605V818.63H2504.06V804.648C2504.06 800.579 2506.14 798.492 2508.75 798.492C2511.1 798.492 2512.62 800.005 2512.62 803.605V818.63H2520.76V802.144C2520.76 795.049 2516.95 791.189 2511.05 791.189Z" fill="white"/>
<path fill-rule="evenodd" clip-rule="evenodd" d="M2450.74 800.973C2448.05 800.973 2445.43 800.614 2442.95 799.958C2442.72 801.455 2442.6 802.994 2442.6 804.553C2442.6 807.168 2442.93 809.691 2443.55 812.112C2436.56 813.127 2430.36 816.522 2425.76 821.445C2423 818.573 2419.68 816.255 2415.99 814.645C2414.13 820.132 2410.76 824.922 2406.35 828.491C2412.8 829.968 2417.6 835.732 2417.6 842.625V842.666H2417.61C2420.72 843.445 2423.96 843.855 2427.31 843.855C2429.67 843.855 2431.98 843.64 2434.24 843.24C2434.27 843.23 2434.3 843.23 2434.33 843.23C2434.64 835.517 2441 829.363 2448.81 829.363C2451.52 829.363 2454.05 830.112 2456.23 831.404C2456.53 831.086 2456.82 830.748 2457.12 830.409C2460.55 826.532 2463.25 821.999 2464.97 816.994C2464.96 816.983 2464.95 816.973 2464.94 816.973C2460.94 814.389 2458.28 809.896 2458.28 804.778C2458.28 803.014 2458.6 801.332 2459.17 799.773C2456.48 800.553 2453.66 800.973 2450.74 800.973ZM2448.83 835.647C2448.2 835.009 2447.36 834.663 2446.47 834.663C2444.62 834.663 2443.13 836.164 2443.13 838.004C2443.13 838.899 2443.48 839.733 2444.11 840.362C2444.74 840.996 2445.57 841.341 2446.47 841.341C2447.36 841.341 2448.2 840.996 2448.83 840.362C2449.46 839.733 2449.81 838.899 2449.81 838.004C2449.81 837.114 2449.46 836.275 2448.83 835.647ZM2444.5 839.964C2443.98 839.443 2443.69 838.746 2443.69 838.004C2443.69 837.261 2443.98 836.563 2444.5 836.041C2445.03 835.512 2445.73 835.228 2446.47 835.228C2447.21 835.228 2447.91 835.512 2448.43 836.041C2448.96 836.563 2449.24 837.261 2449.24 838.004C2449.24 839.535 2448 840.779 2446.47 840.779C2445.73 840.779 2445.03 840.493 2444.5 839.964ZM2448.03 837.118C2448.03 836.677 2447.84 836.367 2447.47 836.206C2447.29 836.12 2447.05 836.078 2446.77 836.078H2445.05V839.793H2445.69V838.271H2446.7C2446.89 838.271 2447.02 838.289 2447.1 838.326C2447.24 838.394 2447.31 838.521 2447.31 838.726L2447.34 839.316C2447.35 839.459 2447.36 839.553 2447.37 839.606C2447.38 839.666 2447.4 839.712 2447.42 839.751L2447.44 839.793H2448.16V839.576L2448.11 839.553C2448.06 839.535 2448.03 839.479 2448.01 839.392C2447.99 839.332 2447.98 839.235 2447.97 839.107L2447.95 838.632C2447.95 838.408 2447.9 838.243 2447.82 838.139C2447.76 838.068 2447.69 838.006 2447.6 837.955C2447.71 837.879 2447.81 837.792 2447.88 837.684C2447.98 837.535 2448.03 837.344 2448.03 837.118ZM2446.72 837.702H2445.69V836.653H2446.79C2446.94 836.653 2447.06 836.677 2447.14 836.718C2447.3 836.796 2447.37 836.941 2447.37 837.164C2447.37 837.368 2447.32 837.509 2447.21 837.587C2447.09 837.664 2446.93 837.702 2446.72 837.702ZM2457.94 778.624C2457.31 778.942 2456.66 779.209 2455.99 779.434C2454.53 779.927 2452.97 780.204 2451.34 780.204C2443.33 780.204 2436.83 773.711 2436.83 765.701C2436.83 765.598 2436.84 765.496 2436.84 765.393C2436.83 765.393 2436.82 765.393 2436.81 765.383C2433.76 764.634 2430.57 764.234 2427.29 764.234C2424.93 764.234 2422.62 764.45 2420.37 764.85C2420.35 764.85 2420.32 764.86 2420.3 764.86C2419.97 772.583 2413.61 778.737 2405.8 778.737C2403.08 778.737 2400.53 777.988 2398.36 776.686L2398.33 776.717C2394.48 780.778 2391.49 785.65 2389.63 791.055C2389.62 791.076 2389.62 791.086 2389.61 791.106C2393.61 793.691 2396.27 798.183 2396.27 803.301C2396.27 808.594 2393.43 813.219 2389.2 815.753V815.763C2389.21 815.794 2389.22 815.835 2389.23 815.866C2390.81 820.942 2393.37 825.589 2396.71 829.568C2403.35 826.071 2408.53 820.204 2411.13 813.086C2411.14 813.065 2411.15 813.045 2411.15 813.024C2412.32 809.804 2412.95 806.327 2412.95 802.696C2412.95 800.255 2412.65 797.876 2412.11 795.599C2418.55 794.378 2424.27 791.127 2428.58 786.542C2432.65 790.881 2437.99 794.019 2444 795.373L2444.31 795.435C2446.38 795.876 2448.52 796.122 2450.72 796.122C2455.85 796.122 2460.67 794.85 2464.91 792.604C2465.05 792.511 2465.2 792.409 2465.35 792.317C2463.8 787.25 2461.26 782.604 2457.94 778.624Z" fill="#07C1D8"/>
</g>
<path d="M3163.12 1440L3153.99 1407.52V1440H3144.7V1399.4H3159.82L3167.6 1428.52L3175.55 1399.4H3190.5V1440H3181.21V1407.46L3172.14 1440H3163.12ZM3219.24 1440.73C3206.76 1440.73 3198.19 1432.38 3198.19 1419.73C3198.19 1407.07 3206.76 1398.73 3219.24 1398.73C3231.68 1398.73 3240.3 1407.07 3240.3 1419.73C3240.3 1432.38 3231.68 1440.73 3219.24 1440.73ZM3219.24 1432.83C3225.18 1432.83 3230.16 1428.35 3230.16 1419.73C3230.16 1411.1 3225.18 1406.62 3219.24 1406.62C3213.31 1406.62 3208.32 1411.1 3208.32 1419.73C3208.32 1428.35 3213.31 1432.83 3219.24 1432.83ZM3261.41 1399.4C3274.68 1399.4 3285.15 1404.22 3285.15 1419.67C3285.15 1435.18 3274.68 1440 3261.41 1440H3248.02V1399.4H3261.41ZM3261.57 1407.46H3257.6V1431.94H3261.57C3268.63 1431.94 3275.01 1430.42 3275.01 1419.67C3275.01 1408.98 3268.63 1407.46 3261.57 1407.46ZM3303.29 1428.13C3303.29 1422.19 3308.1 1418.44 3312.69 1416.48C3309.95 1413.12 3308.49 1410.66 3308.49 1407.8C3308.49 1402.54 3313.31 1398.73 3320.65 1398.73C3326.81 1398.73 3333.08 1401.64 3333.08 1408.19C3333.08 1412.9 3329.55 1416.65 3325.74 1418.33L3330 1423.14C3330.89 1420.79 3331.51 1418.38 3331.68 1416.26H3340.69C3340.25 1420.74 3338.57 1425.61 3335.88 1429.86L3344.78 1440H3332.85L3329.83 1436.53C3326.47 1439.1 3322.44 1440.73 3317.85 1440.73C3309.5 1440.73 3303.29 1435.69 3303.29 1428.13ZM3321.26 1413.23C3323.73 1412 3324.62 1410.1 3324.62 1408.75C3324.62 1406.9 3323 1405.9 3321.26 1405.9C3319.41 1405.9 3318.07 1406.79 3318.07 1408.3C3318.07 1409.65 3319.81 1411.66 3321.26 1413.23ZM3324.9 1430.76L3317.57 1422.25C3314.26 1423.7 3312.75 1425.66 3312.75 1427.85C3312.75 1431.38 3315.27 1433.22 3318.69 1433.22C3321.04 1433.22 3323.11 1432.27 3324.9 1430.76ZM3383.08 1440L3373.96 1407.52V1440H3364.66V1399.4H3379.78L3387.56 1428.52L3395.52 1399.4H3410.47V1440H3401.17V1407.46L3392.1 1440H3383.08ZM3420.62 1399.4H3451.75V1407.8H3430.19V1414.91H3450.58V1423.37H3430.19V1431.54H3451.75V1440H3420.62V1399.4ZM3473.93 1399.4C3487.21 1399.4 3497.68 1404.22 3497.68 1419.67C3497.68 1435.18 3487.21 1440 3473.93 1440H3460.55V1399.4H3473.93ZM3474.1 1407.46H3470.13V1431.94H3474.1C3481.16 1431.94 3487.54 1430.42 3487.54 1419.67C3487.54 1408.98 3481.16 1407.46 3474.1 1407.46ZM3514.93 1440H3505.35V1399.4H3514.93V1440ZM3535.81 1399.4H3546.34L3561.68 1440H3551.27L3548.8 1432.78H3533.12L3530.72 1440H3520.52L3535.81 1399.4ZM3535.76 1424.99H3546.23L3541.02 1409.54L3535.76 1424.99ZM3158.92 1462.4C3155.22 1462.4 3152.48 1463.8 3152.48 1466.32C3152.48 1468.34 3154.38 1469.79 3157.18 1470.41L3162.73 1471.53C3169.28 1472.87 3177.57 1474.89 3177.57 1483.4C3177.57 1491.91 3169 1496.73 3160.54 1496.73C3150.13 1496.73 3143.3 1491.52 3141.84 1482.78H3151.36C3152.42 1487.04 3155.78 1489 3160.77 1489C3164.02 1489 3167.71 1487.94 3167.71 1484.58C3167.71 1481.94 3164.58 1480.66 3160.15 1479.7L3155.22 1478.7C3148.62 1477.3 3142.62 1474.16 3142.62 1466.88C3142.62 1458.59 3151.53 1454.73 3159.48 1454.73C3167.43 1454.73 3174.99 1458.2 3176.39 1467.16H3166.93C3165.98 1464.14 3163.01 1462.4 3158.92 1462.4ZM3193.44 1463.8H3180.45V1455.4H3216.12V1463.8H3203.07V1496H3193.44V1463.8ZM3240.15 1496.73C3227.66 1496.73 3219.09 1488.38 3219.09 1475.73C3219.09 1463.07 3227.66 1454.73 3240.15 1454.73C3252.58 1454.73 3261.2 1463.07 3261.2 1475.73C3261.2 1488.38 3252.58 1496.73 3240.15 1496.73ZM3240.15 1488.83C3246.08 1488.83 3251.07 1484.35 3251.07 1475.73C3251.07 1467.1 3246.08 1462.62 3240.15 1462.62C3234.21 1462.62 3229.23 1467.1 3229.23 1475.73C3229.23 1484.35 3234.21 1488.83 3240.15 1488.83ZM3285 1480.71H3278.5V1496H3268.92V1455.4H3284.55C3295.08 1455.4 3302.97 1457.86 3302.97 1467.94C3302.97 1473.94 3299.67 1477.35 3295.02 1479.14L3305.04 1496H3293.79L3285 1480.71ZM3278.5 1463.46V1472.65H3284.83C3289.36 1472.65 3292.84 1471.86 3292.84 1468.06C3292.84 1464.3 3289.36 1463.46 3284.83 1463.46H3278.5ZM3323.12 1455.4H3333.65L3348.99 1496H3338.58L3336.11 1488.78H3320.43L3318.03 1496H3307.83L3323.12 1455.4ZM3323.07 1480.99H3333.54L3328.33 1465.54L3323.07 1480.99ZM3390.11 1468.11H3380.7C3379.86 1465.31 3377.01 1462.62 3371.8 1462.62C3365.92 1462.62 3361.33 1466.99 3361.33 1475.56C3361.33 1484.13 3365.58 1488.83 3371.97 1488.83C3376.39 1488.83 3380.98 1487.15 3380.98 1482V1481.22H3371.18V1473.38H3390.56V1496H3383.22L3382.94 1491.52C3380.31 1495.05 3376.34 1496.73 3370.51 1496.73C3358.53 1496.73 3351.19 1488.55 3351.19 1475.56C3351.19 1462.74 3359.59 1454.73 3371.91 1454.73C3380.93 1454.73 3388.21 1459.26 3390.11 1468.11ZM3400.32 1455.4H3431.45V1463.8H3409.89V1470.91H3430.28V1479.37H3409.89V1487.54H3431.45V1496H3400.32V1455.4Z" fill="white"/>
<defs>
<clipPath id="clip0_5_2261">
<rect width="150" height="120" fill="white" transform="translate(2005 820)"/>
</clipPath>
<clipPath id="clip1_5_2261">
<rect width="105" height="120" fill="white" transform="translate(2904.5 260)"/>
</clipPath>
<clipPath id="clip2_5_2261">
<rect width="135" height="120" fill="white" transform="translate(2889.5 1380)"/>
</clipPath>
<clipPath id="clip3_5_2261">
<rect width="160" height="128" fill="white" transform="translate(240 496)"/>
</clipPath>
<clipPath id="clip4_5_2261">
<rect width="160" height="128" fill="white" transform="translate(240 1136)"/>
</clipPath>
<clipPath id="clip5_5_2261">
<rect width="260" height="80" fill="white" transform="translate(2389 764)"/>
</clipPath>
</defs>
</svg>
